  0
SECTION
  2
HEADER
  9
$ACADVER
  1
AC1009
999
DXF CREATED BY CADSTD VERSION 3.7.3
999
CadStd_Unit=mm
999
CadStd_Export_Unit=mm
999
CadStd_Paper_Size=A3
999
CadStd_Drawing_Width=419.999160000000018
999
CadStd_Drawing_Height=296.999660000000006
999
CadStd_Paper_Orientation=Landscape
999
CadStd_Paper_Origin_X=0.0
999
CadStd_Paper_Origin_Y=0.0
999
CadStd_Paper_Scale=1
999
CadStd_Dim_Accuracy_General=2
999
CadStd_Dim_Accuracy_Radial=2
999
CadStd_Dim_Accuracy_Angular=1
999
CadStd_Dim_Simplify=FALSE
999
CadStd_Dim_Style=Horizontal
999
CadStd_Dim_ArrowStyle=Closed
999
CadStd_Dim_LeadArrowStyle=Closed
999
CadStd_Dim_AngularDimStyle=Decimal
999
CadStd_Text_Slant=FALSE
999
CadStd_Text_ZeroSlash=FALSE
  0
ENDSEC
  0
SECTION
  2
TABLES
  0
TABLE
  2
LTYPE
 70
     3
  0
LTYPE
  2
LINETYPE_1
 70
    64
  3
See CAD-STD manual for LINETYPE_1
 72
    65
 73
     0
 40
0.0
  0
LTYPE
  2
LINETYPE_2
 70
    64
  3
See CAD-STD manual for LINETYPE_2
 72
    65
 73
     0
 40
0.0
  0
LTYPE
  2
LINETYPE_3
 70
    64
  3
See CAD-STD manual for LINETYPE_3
 72
    65
 73
     2
 40
3.9674800000000001
 49
3.1750000000000003
 49
-0.7924800000000001
  0
LTYPE
  2
LINETYPE_4
 70
    64
  3
See CAD-STD manual for LINETYPE_4
 72
    65
 73
     4
 40
25.4000000000000021
 49
19.0500000000000007
 49
-1.5875000000000001
 49
3.1750000000000003
 49
-1.5875000000000001
  0
LTYPE
  2
LINETYPE_5
 70
    64
  3
See CAD-STD manual for LINETYPE_5
 72
    65
 73
     2
 40
7.9375000000000009
 49
6.3500000000000005
 49
-1.5875000000000001
  0
LTYPE
  2
LINETYPE_6
 70
    64
  3
See CAD-STD manual for LINETYPE_6
 72
    65
 73
     6
 40
30.1625000000000014
 49
19.0500000000000007
 49
-1.5875000000000001
 49
3.1750000000000003
 49
-1.5875000000000001
 49
3.1750000000000003
 49
-1.5875000000000001
  0
LTYPE
  2
LINETYPE_7
 70
    64
  3
See CAD-STD manual for LINETYPE_7
 72
    65
 73
     6
 40
30.1625000000000014
 49
19.0500000000000007
 49
-1.5875000000000001
 49
3.1750000000000003
 49
-1.5875000000000001
 49
3.1750000000000003
 49
-1.5875000000000001
  0
LTYPE
  2
LINETYPE_8
 70
    64
  3
See CAD-STD manual for LINETYPE_8
 72
    65
 73
     2
 40
3.1750000000000003
 49
1.5875000000000001
 49
-1.5875000000000001
  0
LTYPE
  2
LINETYPE_9
 70
    64
  3
See CAD-STD manual for LINETYPE_9
 72
    65
 73
     2
 40
1.5875000000000001
 49
0.00254
 49
-1.5849600000000002
  0
LTYPE
  2
LINETYPE_10
 70
    64
  3
See CAD-STD manual for LINETYPE_10
 72
    65
 73
     4
 40
14.2875000000000014
 49
9.5250000000000004
 49
-1.5875000000000001
 49
1.5875000000000001
 49
-1.5875000000000001
  0
LTYPE
  2
LINETYPE_11
 70
    64
  3
See CAD-STD manual for LINETYPE_11
 72
    65
 73
     0
 40
0.0
  0
ENDTAB
  0
TABLE
  2
LAYER
 70
    14
  0
LAYER
  2
2
 70
     0
 62
     4
  6
CONTINUOUS
  0
LAYER
  2
3
 70
     0
 62
     3
  6
CONTINUOUS
  0
LAYER
  2
4
 70
     0
 62
     9
  6
CONTINUOUS
  0
LAYER
  2
5
 70
     0
 62
     5
  6
CONTINUOUS
  0
LAYER
  2
6
 70
     0
 62
     6
  6
CONTINUOUS
  0
LAYER
  2
7
 70
     0
 62
     1
  6
CONTINUOUS
  0
LAYER
  2
8
 70
     0
 62
    40
  6
CONTINUOUS
  0
LAYER
  2
9
 70
     0
 62
    30
  6
CONTINUOUS
  0
LAYER
  2
10
 70
     0
 62
   134
  6
CONTINUOUS
  0
LAYER
  2
11
 70
     0
 62
    94
  6
CONTINUOUS
  0
LAYER
  2
12
 70
     0
 62
   254
  6
CONTINUOUS
  0
LAYER
  2
13
 70
     0
 62
   174
  6
CONTINUOUS
  0
LAYER
  2
14
 70
     0
 62
   214
  6
CONTINUOUS
  0
LAYER
  2
15
 70
     0
 62
    32
  6
CONTINUOUS
  0
ENDTAB
  0
ENDSEC
  0
SECTION
  2
ENTITIES
  0
CIRCLE
  8
3
  6
LINETYPE_2
999
CadStd_LW=0.2286
 10
12.4993400000000001
 20
128.000760000000014
 30
0.0
 40
2.0015200000000002
  0
CIRCLE
  8
3
  6
LINETYPE_2
999
CadStd_LW=0.2286
 10
127.5003800000000069
 20
128.000760000000014
 30
0.0
 40
1.9989800000000002
  0
CIRCLE
  8
3
  6
LINETYPE_2
999
CadStd_LW=0.2286
 10
12.4993400000000001
 20
13.0022600000000015
 30
0.0
 40
2.0015200000000002
  0
CIRCLE
  8
3
  6
LINETYPE_2
999
CadStd_LW=0.2286
 10
127.5003800000000069
 20
13.0022600000000015
 30
0.0
 40
1.9989800000000002
  0
POLYLINE
  8
3
  6
LINETYPE_2
 66
     1
 10
0.0
 20
0.0
 30
0.0
  0
VERTEX
  8
3
 10
59.9998800000000045
 20
6.5024000000000006
 30
0.0
  0
VERTEX
  8
3
 10
79.9998400000000061
 20
6.5024000000000006
 30
0.0
  0
SEQEND
  0
POLYLINE
  8
3
  6
LINETYPE_2
 66
     1
 10
0.0
 20
0.0
 30
0.0
  0
VERTEX
  8
3
 10
79.9998400000000061
 20
6.5024000000000006
 30
0.0
  0
VERTEX
  8
3
 10
79.9998400000000061
 20
3.5026600000000001
 30
0.0
  0
SEQEND
  0
POLYLINE
  8
3
  6
LINETYPE_2
 66
     1
 10
0.0
 20
0.0
 30
0.0
  0
VERTEX
  8
3
 10
79.9998400000000061
 20
3.5026600000000001
 30
0.0
  0
VERTEX
  8
3
 10
59.9998800000000045
 20
3.5026600000000001
 30
0.0
  0
SEQEND
  0
POLYLINE
  8
3
  6
LINETYPE_2
 66
     1
 10
0.0
 20
0.0
 30
0.0
  0
VERTEX
  8
3
 10
59.9998800000000045
 20
3.5026600000000001
 30
0.0
  0
VERTEX
  8
3
 10
59.9998800000000045
 20
6.5024000000000006
 30
0.0
  0
SEQEND
  0
POLYLINE
  8
3
  6
LINETYPE_2
 66
     1
 10
0.0
 20
0.0
 30
0.0
  0
VERTEX
  8
3
 10
107.5004200000000054
 20
6.5024000000000006
 30
0.0
  0
VERTEX
  8
3
 10
127.5003800000000069
 20
6.5024000000000006
 30
0.0
  0
SEQEND
  0
POLYLINE
  8
3
  6
LINETYPE_2
 66
     1
 10
0.0
 20
0.0
 30
0.0
  0
VERTEX
  8
3
 10
127.5003800000000069
 20
6.5024000000000006
 30
0.0
  0
VERTEX
  8
3
 10
127.5003800000000069
 20
3.5026600000000001
 30
0.0
  0
SEQEND
  0
POLYLINE
  8
3
  6
LINETYPE_2
 66
     1
 10
0.0
 20
0.0
 30
0.0
  0
VERTEX
  8
3
 10
127.5003800000000069
 20
3.5026600000000001
 30
0.0
  0
VERTEX
  8
3
 10
107.5004200000000054
 20
3.5026600000000001
 30
0.0
  0
SEQEND
  0
POLYLINE
  8
3
  6
LINETYPE_2
 66
     1
 10
0.0
 20
0.0
 30
0.0
  0
VERTEX
  8
3
 10
107.5004200000000054
 20
3.5026600000000001
 30
0.0
  0
VERTEX
  8
3
 10
107.5004200000000054
 20
6.5024000000000006
 30
0.0
  0
SEQEND
  0
POLYLINE
  8
3
  6
LINETYPE_2
 66
     1
 10
0.0
 20
0.0
 30
0.0
  0
VERTEX
  8
3
 10
12.4993400000000001
 20
6.5024000000000006
 30
0.0
  0
VERTEX
  8
3
 10
32.4993000000000052
 20
6.5024000000000006
 30
0.0
  0
SEQEND
  0
POLYLINE
  8
3
  6
LINETYPE_2
 66
     1
 10
0.0
 20
0.0
 30
0.0
  0
VERTEX
  8
3
 10
32.4993000000000052
 20
6.5024000000000006
 30
0.0
  0
VERTEX
  8
3
 10
32.4993000000000052
 20
3.5026600000000001
 30
0.0
  0
SEQEND
  0
POLYLINE
  8
3
  6
LINETYPE_2
 66
     1
 10
0.0
 20
0.0
 30
0.0
  0
VERTEX
  8
3
 10
32.4993000000000052
 20
3.5026600000000001
 30
0.0
  0
VERTEX
  8
3
 10
12.4993400000000001
 20
3.5026600000000001
 30
0.0
  0
SEQEND
  0
POLYLINE
  8
3
  6
LINETYPE_2
 66
     1
 10
0.0
 20
0.0
 30
0.0
  0
VERTEX
  8
3
 10
12.4993400000000001
 20
3.5026600000000001
 30
0.0
  0
VERTEX
  8
3
 10
12.4993400000000001
 20
6.5024000000000006
 30
0.0
  0
SEQEND
  0
POLYLINE
  8
3
  6
LINETYPE_2
 66
     1
 10
0.0
 20
0.0
 30
0.0
  0
VERTEX
  8
3
 10
59.9998800000000045
 20
137.500360000000001
 30
0.0
  0
VERTEX
  8
3
 10
79.9998400000000061
 20
137.500360000000001
 30
0.0
  0
SEQEND
  0
POLYLINE
  8
3
  6
LINETYPE_2
 66
     1
 10
0.0
 20
0.0
 30
0.0
  0
VERTEX
  8
3
 10
79.9998400000000061
 20
137.500360000000001
 30
0.0
  0
VERTEX
  8
3
 10
79.9998400000000061
 20
134.500619999999998
 30
0.0
  0
SEQEND
  0
POLYLINE
  8
3
  6
LINETYPE_2
 66
     1
 10
0.0
 20
0.0
 30
0.0
  0
VERTEX
  8
3
 10
79.9998400000000061
 20
134.500619999999998
 30
0.0
  0
VERTEX
  8
3
 10
59.9998800000000045
 20
134.500619999999998
 30
0.0
  0
SEQEND
  0
POLYLINE
  8
3
  6
LINETYPE_2
 66
     1
 10
0.0
 20
0.0
 30
0.0
  0
VERTEX
  8
3
 10
59.9998800000000045
 20
134.500619999999998
 30
0.0
  0
VERTEX
  8
3
 10
59.9998800000000045
 20
137.500360000000001
 30
0.0
  0
SEQEND
  0
POLYLINE
  8
3
  6
LINETYPE_2
 66
     1
 10
0.0
 20
0.0
 30
0.0
  0
VERTEX
  8
3
 10
107.5004200000000054
 20
137.500360000000001
 30
0.0
  0
VERTEX
  8
3
 10
127.5003800000000069
 20
137.500360000000001
 30
0.0
  0
SEQEND
  0
POLYLINE
  8
3
  6
LINETYPE_2
 66
     1
 10
0.0
 20
0.0
 30
0.0
  0
VERTEX
  8
3
 10
127.5003800000000069
 20
137.500360000000001
 30
0.0
  0
VERTEX
  8
3
 10
127.5003800000000069
 20
134.500619999999998
 30
0.0
  0
SEQEND
  0
POLYLINE
  8
3
  6
LINETYPE_2
 66
     1
 10
0.0
 20
0.0
 30
0.0
  0
VERTEX
  8
3
 10
127.5003800000000069
 20
134.500619999999998
 30
0.0
  0
VERTEX
  8
3
 10
107.5004200000000054
 20
134.500619999999998
 30
0.0
  0
SEQEND
  0
POLYLINE
  8
3
  6
LINETYPE_2
 66
     1
 10
0.0
 20
0.0
 30
0.0
  0
VERTEX
  8
3
 10
107.5004200000000054
 20
134.500619999999998
 30
0.0
  0
VERTEX
  8
3
 10
107.5004200000000054
 20
137.500360000000001
 30
0.0
  0
SEQEND
  0
POLYLINE
  8
3
  6
LINETYPE_2
 66
     1
 10
0.0
 20
0.0
 30
0.0
  0
VERTEX
  8
3
 10
12.4993400000000001
 20
137.500360000000001
 30
0.0
  0
VERTEX
  8
3
 10
32.4993000000000052
 20
137.500360000000001
 30
0.0
  0
SEQEND
  0
POLYLINE
  8
3
  6
LINETYPE_2
 66
     1
 10
0.0
 20
0.0
 30
0.0
  0
VERTEX
  8
3
 10
32.4993000000000052
 20
137.500360000000001
 30
0.0
  0
VERTEX
  8
3
 10
32.4993000000000052
 20
134.500619999999998
 30
0.0
  0
SEQEND
  0
POLYLINE
  8
3
  6
LINETYPE_2
 66
     1
 10
0.0
 20
0.0
 30
0.0
  0
VERTEX
  8
3
 10
32.4993000000000052
 20
134.500619999999998
 30
0.0
  0
VERTEX
  8
3
 10
12.4993400000000001
 20
134.500619999999998
 30
0.0
  0
SEQEND
  0
POLYLINE
  8
3
  6
LINETYPE_2
 66
     1
 10
0.0
 20
0.0
 30
0.0
  0
VERTEX
  8
3
 10
12.4993400000000001
 20
134.500619999999998
 30
0.0
  0
VERTEX
  8
3
 10
12.4993400000000001
 20
137.500360000000001
 30
0.0
  0
SEQEND
  0
POLYLINE
  8
3
  6
LINETYPE_2
 66
     1
 10
0.0
 20
0.0
 30
0.0
  0
VERTEX
  8
3
 10
134.000240000000019
 20
60.5028000000000006
 30
0.0
  0
VERTEX
  8
3
 10
134.000240000000019
 20
80.5027600000000092
 30
0.0
  0
SEQEND
  0
POLYLINE
  8
3
  6
LINETYPE_2
 66
     1
 10
0.0
 20
0.0
 30
0.0
  0
VERTEX
  8
3
 10
134.000240000000019
 20
80.5027600000000092
 30
0.0
  0
VERTEX
  8
3
 10
136.999980000000022
 20
80.5027600000000092
 30
0.0
  0
SEQEND
  0
POLYLINE
  8
3
  6
LINETYPE_2
 66
     1
 10
0.0
 20
0.0
 30
0.0
  0
VERTEX
  8
3
 10
136.999980000000022
 20
80.5027600000000092
 30
0.0
  0
VERTEX
  8
3
 10
136.999980000000022
 20
60.5028000000000006
 30
0.0
  0
SEQEND
  0
POLYLINE
  8
3
  6
LINETYPE_2
 66
     1
 10
0.0
 20
0.0
 30
0.0
  0
VERTEX
  8
3
 10
136.999980000000022
 20
60.5028000000000006
 30
0.0
  0
VERTEX
  8
3
 10
134.000240000000019
 20
60.5028000000000006
 30
0.0
  0
SEQEND
  0
POLYLINE
  8
3
  6
LINETYPE_2
 66
     1
 10
0.0
 20
0.0
 30
0.0
  0
VERTEX
  8
3
 10
134.000240000000019
 20
108.0033400000000086
 30
0.0
  0
VERTEX
  8
3
 10
134.000240000000019
 20
128.003299999999996
 30
0.0
  0
SEQEND
  0
POLYLINE
  8
3
  6
LINETYPE_2
 66
     1
 10
0.0
 20
0.0
 30
0.0
  0
VERTEX
  8
3
 10
134.000240000000019
 20
128.003299999999996
 30
0.0
  0
VERTEX
  8
3
 10
136.999980000000022
 20
128.003299999999996
 30
0.0
  0
SEQEND
  0
POLYLINE
  8
3
  6
LINETYPE_2
 66
     1
 10
0.0
 20
0.0
 30
0.0
  0
VERTEX
  8
3
 10
136.999980000000022
 20
128.003299999999996
 30
0.0
  0
VERTEX
  8
3
 10
136.999980000000022
 20
108.0033400000000086
 30
0.0
  0
SEQEND
  0
POLYLINE
  8
3
  6
LINETYPE_2
 66
     1
 10
0.0
 20
0.0
 30
0.0
  0
VERTEX
  8
3
 10
136.999980000000022
 20
108.0033400000000086
 30
0.0
  0
VERTEX
  8
3
 10
134.000240000000019
 20
108.0033400000000086
 30
0.0
  0
SEQEND
  0
POLYLINE
  8
3
  6
LINETYPE_2
 66
     1
 10
0.0
 20
0.0
 30
0.0
  0
VERTEX
  8
3
 10
134.000240000000019
 20
13.0022600000000015
 30
0.0
  0
VERTEX
  8
3
 10
134.000240000000019
 20
33.0022200000000012
 30
0.0
  0
SEQEND
  0
POLYLINE
  8
3
  6
LINETYPE_2
 66
     1
 10
0.0
 20
0.0
 30
0.0
  0
VERTEX
  8
3
 10
134.000240000000019
 20
33.0022200000000012
 30
0.0
  0
VERTEX
  8
3
 10
136.999980000000022
 20
33.0022200000000012
 30
0.0
  0
SEQEND
  0
POLYLINE
  8
3
  6
LINETYPE_2
 66
     1
 10
0.0
 20
0.0
 30
0.0
  0
VERTEX
  8
3
 10
136.999980000000022
 20
33.0022200000000012
 30
0.0
  0
VERTEX
  8
3
 10
136.999980000000022
 20
13.0022600000000015
 30
0.0
  0
SEQEND
  0
POLYLINE
  8
3
  6
LINETYPE_2
 66
     1
 10
0.0
 20
0.0
 30
0.0
  0
VERTEX
  8
3
 10
136.999980000000022
 20
13.0022600000000015
 30
0.0
  0
VERTEX
  8
3
 10
134.000240000000019
 20
13.0022600000000015
 30
0.0
  0
SEQEND
  0
POLYLINE
  8
3
  6
LINETYPE_2
 66
     1
 10
0.0
 20
0.0
 30
0.0
  0
VERTEX
  8
3
 10
2.9997400000000001
 20
60.5028000000000006
 30
0.0
  0
VERTEX
  8
3
 10
2.9997400000000001
 20
80.5027600000000092
 30
0.0
  0
SEQEND
  0
POLYLINE
  8
3
  6
LINETYPE_2
 66
     1
 10
0.0
 20
0.0
 30
0.0
  0
VERTEX
  8
3
 10
2.9997400000000001
 20
80.5027600000000092
 30
0.0
  0
VERTEX
  8
3
 10
5.9994800000000002
 20
80.5027600000000092
 30
0.0
  0
SEQEND
  0
POLYLINE
  8
3
  6
LINETYPE_2
 66
     1
 10
0.0
 20
0.0
 30
0.0
  0
VERTEX
  8
3
 10
5.9994800000000002
 20
80.5027600000000092
 30
0.0
  0
VERTEX
  8
3
 10
5.9994800000000002
 20
60.5028000000000006
 30
0.0
  0
SEQEND
  0
POLYLINE
  8
3
  6
LINETYPE_2
 66
     1
 10
0.0
 20
0.0
 30
0.0
  0
VERTEX
  8
3
 10
5.9994800000000002
 20
60.5028000000000006
 30
0.0
  0
VERTEX
  8
3
 10
2.9997400000000001
 20
60.5028000000000006
 30
0.0
  0
SEQEND
  0
POLYLINE
  8
3
  6
LINETYPE_2
 66
     1
 10
0.0
 20
0.0
 30
0.0
  0
VERTEX
  8
3
 10
2.9997400000000001
 20
108.0033400000000086
 30
0.0
  0
VERTEX
  8
3
 10
2.9997400000000001
 20
128.003299999999996
 30
0.0
  0
SEQEND
  0
POLYLINE
  8
3
  6
LINETYPE_2
 66
     1
 10
0.0
 20
0.0
 30
0.0
  0
VERTEX
  8
3
 10
2.9997400000000001
 20
128.003299999999996
 30
0.0
  0
VERTEX
  8
3
 10
5.9994800000000002
 20
128.003299999999996
 30
0.0
  0
SEQEND
  0
POLYLINE
  8
3
  6
LINETYPE_2
 66
     1
 10
0.0
 20
0.0
 30
0.0
  0
VERTEX
  8
3
 10
5.9994800000000002
 20
128.003299999999996
 30
0.0
  0
VERTEX
  8
3
 10
5.9994800000000002
 20
108.0033400000000086
 30
0.0
  0
SEQEND
  0
POLYLINE
  8
3
  6
LINETYPE_2
 66
     1
 10
0.0
 20
0.0
 30
0.0
  0
VERTEX
  8
3
 10
5.9994800000000002
 20
108.0033400000000086
 30
0.0
  0
VERTEX
  8
3
 10
2.9997400000000001
 20
108.0033400000000086
 30
0.0
  0
SEQEND
  0
POLYLINE
  8
3
  6
LINETYPE_2
 66
     1
 10
0.0
 20
0.0
 30
0.0
  0
VERTEX
  8
3
 10
2.9997400000000001
 20
13.0022600000000015
 30
0.0
  0
VERTEX
  8
3
 10
2.9997400000000001
 20
33.0022200000000012
 30
0.0
  0
SEQEND
  0
POLYLINE
  8
3
  6
LINETYPE_2
 66
     1
 10
0.0
 20
0.0
 30
0.0
  0
VERTEX
  8
3
 10
2.9997400000000001
 20
33.0022200000000012
 30
0.0
  0
VERTEX
  8
3
 10
5.9994800000000002
 20
33.0022200000000012
 30
0.0
  0
SEQEND
  0
POLYLINE
  8
3
  6
LINETYPE_2
 66
     1
 10
0.0
 20
0.0
 30
0.0
  0
VERTEX
  8
3
 10
5.9994800000000002
 20
33.0022200000000012
 30
0.0
  0
VERTEX
  8
3
 10
5.9994800000000002
 20
13.0022600000000015
 30
0.0
  0
SEQEND
  0
POLYLINE
  8
3
  6
LINETYPE_2
 66
     1
 10
0.0
 20
0.0
 30
0.0
  0
VERTEX
  8
3
 10
5.9994800000000002
 20
13.0022600000000015
 30
0.0
  0
VERTEX
  8
3
 10
2.9997400000000001
 20
13.0022600000000015
 30
0.0
  0
SEQEND
  0
CIRCLE
  8
3
  6
LINETYPE_2
999
CadStd_LW=0.2286
 10
152.499060000000014
 20
128.000760000000014
 30
0.0
 40
2.0015200000000002
  0
CIRCLE
  8
3
  6
LINETYPE_2
999
CadStd_LW=0.2286
 10
267.500100000000032
 20
128.000760000000014
 30
0.0
 40
1.9989800000000002
  0
CIRCLE
  8
3
  6
LINETYPE_2
999
CadStd_LW=0.2286
 10
152.499060000000014
 20
13.0022600000000015
 30
0.0
 40
2.0015200000000002
  0
CIRCLE
  8
3
  6
LINETYPE_2
999
CadStd_LW=0.2286
 10
267.500100000000032
 20
13.0022600000000015
 30
0.0
 40
1.9989800000000002
  0
POLYLINE
  8
3
  6
LINETYPE_2
 66
     1
 10
0.0
 20
0.0
 30
0.0
  0
VERTEX
  8
3
 10
199.999600000000015
 20
6.5024000000000006
 30
0.0
  0
VERTEX
  8
3
 10
219.999560000000002
 20
6.5024000000000006
 30
0.0
  0
SEQEND
  0
POLYLINE
  8
3
  6
LINETYPE_2
 66
     1
 10
0.0
 20
0.0
 30
0.0
  0
VERTEX
  8
3
 10
219.999560000000002
 20
6.5024000000000006
 30
0.0
  0
VERTEX
  8
3
 10
219.999560000000002
 20
3.5026600000000001
 30
0.0
  0
SEQEND
  0
POLYLINE
  8
3
  6
LINETYPE_2
 66
     1
 10
0.0
 20
0.0
 30
0.0
  0
VERTEX
  8
3
 10
219.999560000000002
 20
3.5026600000000001
 30
0.0
  0
VERTEX
  8
3
 10
199.999600000000015
 20
3.5026600000000001
 30
0.0
  0
SEQEND
  0
POLYLINE
  8
3
  6
LINETYPE_2
 66
     1
 10
0.0
 20
0.0
 30
0.0
  0
VERTEX
  8
3
 10
199.999600000000015
 20
3.5026600000000001
 30
0.0
  0
VERTEX
  8
3
 10
199.999600000000015
 20
6.5024000000000006
 30
0.0
  0
SEQEND
  0
POLYLINE
  8
3
  6
LINETYPE_2
 66
     1
 10
0.0
 20
0.0
 30
0.0
  0
VERTEX
  8
3
 10
247.500140000000016
 20
6.5024000000000006
 30
0.0
  0
VERTEX
  8
3
 10
267.500100000000032
 20
6.5024000000000006
 30
0.0
  0
SEQEND
  0
POLYLINE
  8
3
  6
LINETYPE_2
 66
     1
 10
0.0
 20
0.0
 30
0.0
  0
VERTEX
  8
3
 10
267.500100000000032
 20
6.5024000000000006
 30
0.0
  0
VERTEX
  8
3
 10
267.500100000000032
 20
3.5026600000000001
 30
0.0
  0
SEQEND
  0
POLYLINE
  8
3
  6
LINETYPE_2
 66
     1
 10
0.0
 20
0.0
 30
0.0
  0
VERTEX
  8
3
 10
267.500100000000032
 20
3.5026600000000001
 30
0.0
  0
VERTEX
  8
3
 10
247.500140000000016
 20
3.5026600000000001
 30
0.0
  0
SEQEND
  0
POLYLINE
  8
3
  6
LINETYPE_2
 66
     1
 10
0.0
 20
0.0
 30
0.0
  0
VERTEX
  8
3
 10
247.500140000000016
 20
3.5026600000000001
 30
0.0
  0
VERTEX
  8
3
 10
247.500140000000016
 20
6.5024000000000006
 30
0.0
  0
SEQEND
  0
POLYLINE
  8
3
  6
LINETYPE_2
 66
     1
 10
0.0
 20
0.0
 30
0.0
  0
VERTEX
  8
3
 10
152.499060000000014
 20
6.5024000000000006
 30
0.0
  0
VERTEX
  8
3
 10
172.499020000000002
 20
6.5024000000000006
 30
0.0
  0
SEQEND
  0
POLYLINE
  8
3
  6
LINETYPE_2
 66
     1
 10
0.0
 20
0.0
 30
0.0
  0
VERTEX
  8
3
 10
172.499020000000002
 20
6.5024000000000006
 30
0.0
  0
VERTEX
  8
3
 10
172.499020000000002
 20
3.5026600000000001
 30
0.0
  0
SEQEND
  0
POLYLINE
  8
3
  6
LINETYPE_2
 66
     1
 10
0.0
 20
0.0
 30
0.0
  0
VERTEX
  8
3
 10
172.499020000000002
 20
3.5026600000000001
 30
0.0
  0
VERTEX
  8
3
 10
152.499060000000014
 20
3.5026600000000001
 30
0.0
  0
SEQEND
  0
POLYLINE
  8
3
  6
LINETYPE_2
 66
     1
 10
0.0
 20
0.0
 30
0.0
  0
VERTEX
  8
3
 10
152.499060000000014
 20
3.5026600000000001
 30
0.0
  0
VERTEX
  8
3
 10
152.499060000000014
 20
6.5024000000000006
 30
0.0
  0
SEQEND
  0
POLYLINE
  8
3
  6
LINETYPE_2
 66
     1
 10
0.0
 20
0.0
 30
0.0
  0
VERTEX
  8
3
 10
199.999600000000015
 20
137.500360000000001
 30
0.0
  0
VERTEX
  8
3
 10
219.999560000000002
 20
137.500360000000001
 30
0.0
  0
SEQEND
  0
POLYLINE
  8
3
  6
LINETYPE_2
 66
     1
 10
0.0
 20
0.0
 30
0.0
  0
VERTEX
  8
3
 10
219.999560000000002
 20
137.500360000000001
 30
0.0
  0
VERTEX
  8
3
 10
219.999560000000002
 20
134.500619999999998
 30
0.0
  0
SEQEND
  0
POLYLINE
  8
3
  6
LINETYPE_2
 66
     1
 10
0.0
 20
0.0
 30
0.0
  0
VERTEX
  8
3
 10
219.999560000000002
 20
134.500619999999998
 30
0.0
  0
VERTEX
  8
3
 10
199.999600000000015
 20
134.500619999999998
 30
0.0
  0
SEQEND
  0
POLYLINE
  8
3
  6
LINETYPE_2
 66
     1
 10
0.0
 20
0.0
 30
0.0
  0
VERTEX
  8
3
 10
199.999600000000015
 20
134.500619999999998
 30
0.0
  0
VERTEX
  8
3
 10
199.999600000000015
 20
137.500360000000001
 30
0.0
  0
SEQEND
  0
POLYLINE
  8
3
  6
LINETYPE_2
 66
     1
 10
0.0
 20
0.0
 30
0.0
  0
VERTEX
  8
3
 10
247.500140000000016
 20
137.500360000000001
 30
0.0
  0
VERTEX
  8
3
 10
267.500100000000032
 20
137.500360000000001
 30
0.0
  0
SEQEND
  0
POLYLINE
  8
3
  6
LINETYPE_2
 66
     1
 10
0.0
 20
0.0
 30
0.0
  0
VERTEX
  8
3
 10
267.500100000000032
 20
137.500360000000001
 30
0.0
  0
VERTEX
  8
3
 10
267.500100000000032
 20
134.500619999999998
 30
0.0
  0
SEQEND
  0
POLYLINE
  8
3
  6
LINETYPE_2
 66
     1
 10
0.0
 20
0.0
 30
0.0
  0
VERTEX
  8
3
 10
267.500100000000032
 20
134.500619999999998
 30
0.0
  0
VERTEX
  8
3
 10
247.500140000000016
 20
134.500619999999998
 30
0.0
  0
SEQEND
  0
POLYLINE
  8
3
  6
LINETYPE_2
 66
     1
 10
0.0
 20
0.0
 30
0.0
  0
VERTEX
  8
3
 10
247.500140000000016
 20
134.500619999999998
 30
0.0
  0
VERTEX
  8
3
 10
247.500140000000016
 20
137.500360000000001
 30
0.0
  0
SEQEND
  0
POLYLINE
  8
3
  6
LINETYPE_2
 66
     1
 10
0.0
 20
0.0
 30
0.0
  0
VERTEX
  8
3
 10
152.499060000000014
 20
137.500360000000001
 30
0.0
  0
VERTEX
  8
3
 10
172.499020000000002
 20
137.500360000000001
 30
0.0
  0
SEQEND
  0
POLYLINE
  8
3
  6
LINETYPE_2
 66
     1
 10
0.0
 20
0.0
 30
0.0
  0
VERTEX
  8
3
 10
172.499020000000002
 20
137.500360000000001
 30
0.0
  0
VERTEX
  8
3
 10
172.499020000000002
 20
134.500619999999998
 30
0.0
  0
SEQEND
  0
POLYLINE
  8
3
  6
LINETYPE_2
 66
     1
 10
0.0
 20
0.0
 30
0.0
  0
VERTEX
  8
3
 10
172.499020000000002
 20
134.500619999999998
 30
0.0
  0
VERTEX
  8
3
 10
152.499060000000014
 20
134.500619999999998
 30
0.0
  0
SEQEND
  0
POLYLINE
  8
3
  6
LINETYPE_2
 66
     1
 10
0.0
 20
0.0
 30
0.0
  0
VERTEX
  8
3
 10
152.499060000000014
 20
134.500619999999998
 30
0.0
  0
VERTEX
  8
3
 10
152.499060000000014
 20
137.500360000000001
 30
0.0
  0
SEQEND
  0
POLYLINE
  8
3
  6
LINETYPE_2
 66
     1
 10
0.0
 20
0.0
 30
0.0
  0
VERTEX
  8
3
 10
273.999960000000044
 20
60.5028000000000006
 30
0.0
  0
VERTEX
  8
3
 10
273.999960000000044
 20
80.5027600000000092
 30
0.0
  0
SEQEND
  0
POLYLINE
  8
3
  6
LINETYPE_2
 66
     1
 10
0.0
 20
0.0
 30
0.0
  0
VERTEX
  8
3
 10
273.999960000000044
 20
80.5027600000000092
 30
0.0
  0
VERTEX
  8
3
 10
276.999700000000018
 20
80.5027600000000092
 30
0.0
  0
SEQEND
  0
POLYLINE
  8
3
  6
LINETYPE_2
 66
     1
 10
0.0
 20
0.0
 30
0.0
  0
VERTEX
  8
3
 10
276.999700000000018
 20
80.5027600000000092
 30
0.0
  0
VERTEX
  8
3
 10
276.999700000000018
 20
60.5028000000000006
 30
0.0
  0
SEQEND
  0
POLYLINE
  8
3
  6
LINETYPE_2
 66
     1
 10
0.0
 20
0.0
 30
0.0
  0
VERTEX
  8
3
 10
276.999700000000018
 20
60.5028000000000006
 30
0.0
  0
VERTEX
  8
3
 10
273.999960000000044
 20
60.5028000000000006
 30
0.0
  0
SEQEND
  0
POLYLINE
  8
3
  6
LINETYPE_2
 66
     1
 10
0.0
 20
0.0
 30
0.0
  0
VERTEX
  8
3
 10
273.999960000000044
 20
108.0033400000000086
 30
0.0
  0
VERTEX
  8
3
 10
273.999960000000044
 20
128.003299999999996
 30
0.0
  0
SEQEND
  0
POLYLINE
  8
3
  6
LINETYPE_2
 66
     1
 10
0.0
 20
0.0
 30
0.0
  0
VERTEX
  8
3
 10
273.999960000000044
 20
128.003299999999996
 30
0.0
  0
VERTEX
  8
3
 10
276.999700000000018
 20
128.003299999999996
 30
0.0
  0
SEQEND
  0
POLYLINE
  8
3
  6
LINETYPE_2
 66
     1
 10
0.0
 20
0.0
 30
0.0
  0
VERTEX
  8
3
 10
276.999700000000018
 20
128.003299999999996
 30
0.0
  0
VERTEX
  8
3
 10
276.999700000000018
 20
108.0033400000000086
 30
0.0
  0
SEQEND
  0
POLYLINE
  8
3
  6
LINETYPE_2
 66
     1
 10
0.0
 20
0.0
 30
0.0
  0
VERTEX
  8
3
 10
276.999700000000018
 20
108.0033400000000086
 30
0.0
  0
VERTEX
  8
3
 10
273.999960000000044
 20
108.0033400000000086
 30
0.0
  0
SEQEND
  0
POLYLINE
  8
3
  6
LINETYPE_2
 66
     1
 10
0.0
 20
0.0
 30
0.0
  0
VERTEX
  8
3
 10
273.999960000000044
 20
13.0022600000000015
 30
0.0
  0
VERTEX
  8
3
 10
273.999960000000044
 20
33.0022200000000012
 30
0.0
  0
SEQEND
  0
POLYLINE
  8
3
  6
LINETYPE_2
 66
     1
 10
0.0
 20
0.0
 30
0.0
  0
VERTEX
  8
3
 10
273.999960000000044
 20
33.0022200000000012
 30
0.0
  0
VERTEX
  8
3
 10
276.999700000000018
 20
33.0022200000000012
 30
0.0
  0
SEQEND
  0
POLYLINE
  8
3
  6
LINETYPE_2
 66
     1
 10
0.0
 20
0.0
 30
0.0
  0
VERTEX
  8
3
 10
276.999700000000018
 20
33.0022200000000012
 30
0.0
  0
VERTEX
  8
3
 10
276.999700000000018
 20
13.0022600000000015
 30
0.0
  0
SEQEND
  0
POLYLINE
  8
3
  6
LINETYPE_2
 66
     1
 10
0.0
 20
0.0
 30
0.0
  0
VERTEX
  8
3
 10
276.999700000000018
 20
13.0022600000000015
 30
0.0
  0
VERTEX
  8
3
 10
273.999960000000044
 20
13.0022600000000015
 30
0.0
  0
SEQEND
  0
POLYLINE
  8
3
  6
LINETYPE_2
 66
     1
 10
0.0
 20
0.0
 30
0.0
  0
VERTEX
  8
3
 10
142.999459999999999
 20
60.5028000000000006
 30
0.0
  0
VERTEX
  8
3
 10
142.999459999999999
 20
80.5027600000000092
 30
0.0
  0
SEQEND
  0
POLYLINE
  8
3
  6
LINETYPE_2
 66
     1
 10
0.0
 20
0.0
 30
0.0
  0
VERTEX
  8
3
 10
142.999459999999999
 20
80.5027600000000092
 30
0.0
  0
VERTEX
  8
3
 10
145.999200000000002
 20
80.5027600000000092
 30
0.0
  0
SEQEND
  0
POLYLINE
  8
3
  6
LINETYPE_2
 66
     1
 10
0.0
 20
0.0
 30
0.0
  0
VERTEX
  8
3
 10
145.999200000000002
 20
80.5027600000000092
 30
0.0
  0
VERTEX
  8
3
 10
145.999200000000002
 20
60.5028000000000006
 30
0.0
  0
SEQEND
  0
POLYLINE
  8
3
  6
LINETYPE_2
 66
     1
 10
0.0
 20
0.0
 30
0.0
  0
VERTEX
  8
3
 10
145.999200000000002
 20
60.5028000000000006
 30
0.0
  0
VERTEX
  8
3
 10
142.999459999999999
 20
60.5028000000000006
 30
0.0
  0
SEQEND
  0
POLYLINE
  8
3
  6
LINETYPE_2
 66
     1
 10
0.0
 20
0.0
 30
0.0
  0
VERTEX
  8
3
 10
142.999459999999999
 20
108.0033400000000086
 30
0.0
  0
VERTEX
  8
3
 10
142.999459999999999
 20
128.003299999999996
 30
0.0
  0
SEQEND
  0
POLYLINE
  8
3
  6
LINETYPE_2
 66
     1
 10
0.0
 20
0.0
 30
0.0
  0
VERTEX
  8
3
 10
142.999459999999999
 20
128.003299999999996
 30
0.0
  0
VERTEX
  8
3
 10
145.999200000000002
 20
128.003299999999996
 30
0.0
  0
SEQEND
  0
POLYLINE
  8
3
  6
LINETYPE_2
 66
     1
 10
0.0
 20
0.0
 30
0.0
  0
VERTEX
  8
3
 10
145.999200000000002
 20
128.003299999999996
 30
0.0
  0
VERTEX
  8
3
 10
145.999200000000002
 20
108.0033400000000086
 30
0.0
  0
SEQEND
  0
POLYLINE
  8
3
  6
LINETYPE_2
 66
     1
 10
0.0
 20
0.0
 30
0.0
  0
VERTEX
  8
3
 10
145.999200000000002
 20
108.0033400000000086
 30
0.0
  0
VERTEX
  8
3
 10
142.999459999999999
 20
108.0033400000000086
 30
0.0
  0
SEQEND
  0
POLYLINE
  8
3
  6
LINETYPE_2
 66
     1
 10
0.0
 20
0.0
 30
0.0
  0
VERTEX
  8
3
 10
142.999459999999999
 20
13.0022600000000015
 30
0.0
  0
VERTEX
  8
3
 10
142.999459999999999
 20
33.0022200000000012
 30
0.0
  0
SEQEND
  0
POLYLINE
  8
3
  6
LINETYPE_2
 66
     1
 10
0.0
 20
0.0
 30
0.0
  0
VERTEX
  8
3
 10
142.999459999999999
 20
33.0022200000000012
 30
0.0
  0
VERTEX
  8
3
 10
145.999200000000002
 20
33.0022200000000012
 30
0.0
  0
SEQEND
  0
POLYLINE
  8
3
  6
LINETYPE_2
 66
     1
 10
0.0
 20
0.0
 30
0.0
  0
VERTEX
  8
3
 10
145.999200000000002
 20
33.0022200000000012
 30
0.0
  0
VERTEX
  8
3
 10
145.999200000000002
 20
13.0022600000000015
 30
0.0
  0
SEQEND
  0
POLYLINE
  8
3
  6
LINETYPE_2
 66
     1
 10
0.0
 20
0.0
 30
0.0
  0
VERTEX
  8
3
 10
145.999200000000002
 20
13.0022600000000015
 30
0.0
  0
VERTEX
  8
3
 10
142.999459999999999
 20
13.0022600000000015
 30
0.0
  0
SEQEND
  0
POLYLINE
  8
2
  6
LINETYPE_2
 66
     1
 10
0.0
 20
0.0
 30
0.0
  0
VERTEX
  8
2
 10
79.9998400000000061
 20
196.504560000000026
 30
0.0
  0
VERTEX
  8
2
 10
59.9998800000000045
 20
196.504560000000026
 30
0.0
  0
SEQEND
  0
POLYLINE
  8
2
  6
LINETYPE_2
 66
     1
 10
0.0
 20
0.0
 30
0.0
  0
VERTEX
  8
2
 10
127.5003800000000069
 20
196.504560000000026
 30
0.0
  0
VERTEX
  8
2
 10
107.5004200000000054
 20
196.504560000000026
 30
0.0
  0
SEQEND
  0
POLYLINE
  8
2
  6
LINETYPE_2
 66
     1
 10
0.0
 20
0.0
 30
0.0
  0
VERTEX
  8
2
 10
32.4993000000000052
 20
196.504560000000026
 30
0.0
  0
VERTEX
  8
2
 10
12.4993400000000001
 20
196.504560000000026
 30
0.0
  0
SEQEND
  0
POLYLINE
  8
3
  6
LINETYPE_2
 66
     1
 10
0.0
 20
0.0
 30
0.0
  0
VERTEX
  8
3
 10
134.000240000000019
 20
214.505540000000025
 30
0.0
  0
VERTEX
  8
3
 10
134.000240000000019
 20
234.505500000000012
 30
0.0
  0
SEQEND
  0
POLYLINE
  8
3
  6
LINETYPE_2
 66
     1
 10
0.0
 20
0.0
 30
0.0
  0
VERTEX
  8
3
 10
134.000240000000019
 20
234.505500000000012
 30
0.0
  0
VERTEX
  8
3
 10
136.999980000000022
 20
234.505500000000012
 30
0.0
  0
SEQEND
  0
POLYLINE
  8
3
  6
LINETYPE_2
 66
     1
 10
0.0
 20
0.0
 30
0.0
  0
VERTEX
  8
3
 10
136.999980000000022
 20
234.505500000000012
 30
0.0
  0
VERTEX
  8
3
 10
136.999980000000022
 20
214.505540000000025
 30
0.0
  0
SEQEND
  0
POLYLINE
  8
3
  6
LINETYPE_2
 66
     1
 10
0.0
 20
0.0
 30
0.0
  0
VERTEX
  8
3
 10
2.9997400000000001
 20
214.505540000000025
 30
0.0
  0
VERTEX
  8
3
 10
2.9997400000000001
 20
234.505500000000012
 30
0.0
  0
SEQEND
  0
POLYLINE
  8
3
  6
LINETYPE_2
 66
     1
 10
0.0
 20
0.0
 30
0.0
  0
VERTEX
  8
3
 10
2.9997400000000001
 20
234.505500000000012
 30
0.0
  0
VERTEX
  8
3
 10
5.9994800000000002
 20
234.505500000000012
 30
0.0
  0
SEQEND
  0
POLYLINE
  8
3
  6
LINETYPE_2
 66
     1
 10
0.0
 20
0.0
 30
0.0
  0
VERTEX
  8
3
 10
5.9994800000000002
 20
234.505500000000012
 30
0.0
  0
VERTEX
  8
3
 10
5.9994800000000002
 20
214.505540000000025
 30
0.0
  0
SEQEND
  0
POLYLINE
  8
3
  6
LINETYPE_2
 66
     1
 10
0.0
 20
0.0
 30
0.0
  0
VERTEX
  8
3
 10
5.9994800000000002
 20
214.503000000000014
 30
0.0
  0
VERTEX
  8
3
 10
2.9997400000000001
 20
214.503000000000014
 30
0.0
  0
SEQEND
  0
POLYLINE
  8
3
  6
LINETYPE_2
 66
     1
 10
0.0
 20
0.0
 30
0.0
  0
VERTEX
  8
3
 10
136.999980000000022
 20
214.503000000000014
 30
0.0
  0
VERTEX
  8
3
 10
134.000240000000019
 20
214.503000000000014
 30
0.0
  0
SEQEND
  0
POLYLINE
  8
2
  6
LINETYPE_2
 66
     1
 10
0.0
 20
0.0
 30
0.0
  0
VERTEX
  8
2
 10
79.9998400000000061
 20
199.501760000000019
 30
0.0
  0
VERTEX
  8
2
 10
79.9998400000000061
 20
196.502020000000016
 30
0.0
  0
SEQEND
  0
POLYLINE
  8
2
  6
LINETYPE_2
 66
     1
 10
0.0
 20
0.0
 30
0.0
  0
VERTEX
  8
2
 10
59.9998800000000045
 20
196.502020000000016
 30
0.0
  0
VERTEX
  8
2
 10
59.9998800000000045
 20
199.501760000000019
 30
0.0
  0
SEQEND
  0
POLYLINE
  8
2
  6
LINETYPE_2
 66
     1
 10
0.0
 20
0.0
 30
0.0
  0
VERTEX
  8
2
 10
127.5003800000000069
 20
199.501760000000019
 30
0.0
  0
VERTEX
  8
2
 10
127.5003800000000069
 20
196.502020000000016
 30
0.0
  0
SEQEND
  0
POLYLINE
  8
2
  6
LINETYPE_2
 66
     1
 10
0.0
 20
0.0
 30
0.0
  0
VERTEX
  8
2
 10
107.5004200000000054
 20
196.502020000000016
 30
0.0
  0
VERTEX
  8
2
 10
107.5004200000000054
 20
199.501760000000019
 30
0.0
  0
SEQEND
  0
POLYLINE
  8
2
  6
LINETYPE_2
 66
     1
 10
0.0
 20
0.0
 30
0.0
  0
VERTEX
  8
2
 10
32.4993000000000052
 20
199.501760000000019
 30
0.0
  0
VERTEX
  8
2
 10
32.4993000000000052
 20
196.502020000000016
 30
0.0
  0
SEQEND
  0
POLYLINE
  8
2
  6
LINETYPE_2
 66
     1
 10
0.0
 20
0.0
 30
0.0
  0
VERTEX
  8
2
 10
12.4993400000000001
 20
196.502020000000016
 30
0.0
  0
VERTEX
  8
2
 10
12.4993400000000001
 20
199.501760000000019
 30
0.0
  0
SEQEND
  0
POLYLINE
  8
2
  6
LINETYPE_2
 66
     1
 10
0.0
 20
0.0
 30
0.0
  0
VERTEX
  8
2
 10
59.9998800000000045
 20
199.501760000000019
 30
0.0
  0
VERTEX
  8
2
 10
32.4993000000000052
 20
199.501760000000019
 30
0.0
  0
SEQEND
  0
POLYLINE
  8
2
  6
LINETYPE_2
 66
     1
 10
0.0
 20
0.0
 30
0.0
  0
VERTEX
  8
2
 10
107.5004200000000054
 20
199.501760000000019
 30
0.0
  0
VERTEX
  8
2
 10
79.9998400000000061
 20
199.501760000000019
 30
0.0
  0
SEQEND
  0
POLYLINE
  8
2
  6
LINETYPE_2
 66
     1
 10
0.0
 20
0.0
 30
0.0
  0
VERTEX
  8
2
 10
79.9998400000000061
 20
249.504200000000026
 30
0.0
  0
VERTEX
  8
2
 10
79.9998400000000061
 20
252.503940000000028
 30
0.0
  0
SEQEND
  0
POLYLINE
  8
2
  6
LINETYPE_2
 66
     1
 10
0.0
 20
0.0
 30
0.0
  0
VERTEX
  8
2
 10
79.9998400000000061
 20
252.503940000000028
 30
0.0
  0
VERTEX
  8
2
 10
59.9998800000000045
 20
252.503940000000028
 30
0.0
  0
SEQEND
  0
POLYLINE
  8
2
  6
LINETYPE_2
 66
     1
 10
0.0
 20
0.0
 30
0.0
  0
VERTEX
  8
2
 10
59.9998800000000045
 20
252.503940000000028
 30
0.0
  0
VERTEX
  8
2
 10
59.9998800000000045
 20
249.504200000000026
 30
0.0
  0
SEQEND
  0
POLYLINE
  8
2
  6
LINETYPE_2
 66
     1
 10
0.0
 20
0.0
 30
0.0
  0
VERTEX
  8
2
 10
127.5003800000000069
 20
249.504200000000026
 30
0.0
  0
VERTEX
  8
2
 10
127.5003800000000069
 20
252.503940000000028
 30
0.0
  0
SEQEND
  0
POLYLINE
  8
2
  6
LINETYPE_2
 66
     1
 10
0.0
 20
0.0
 30
0.0
  0
VERTEX
  8
2
 10
127.5003800000000069
 20
252.503940000000028
 30
0.0
  0
VERTEX
  8
2
 10
107.5004200000000054
 20
252.503940000000028
 30
0.0
  0
SEQEND
  0
POLYLINE
  8
2
  6
LINETYPE_2
 66
     1
 10
0.0
 20
0.0
 30
0.0
  0
VERTEX
  8
2
 10
107.5004200000000054
 20
252.503940000000028
 30
0.0
  0
VERTEX
  8
2
 10
107.5004200000000054
 20
249.504200000000026
 30
0.0
  0
SEQEND
  0
POLYLINE
  8
2
  6
LINETYPE_2
 66
     1
 10
0.0
 20
0.0
 30
0.0
  0
VERTEX
  8
2
 10
32.4993000000000052
 20
249.504200000000026
 30
0.0
  0
VERTEX
  8
2
 10
32.4993000000000052
 20
252.503940000000028
 30
0.0
  0
SEQEND
  0
POLYLINE
  8
2
  6
LINETYPE_2
 66
     1
 10
0.0
 20
0.0
 30
0.0
  0
VERTEX
  8
2
 10
32.4993000000000052
 20
252.503940000000028
 30
0.0
  0
VERTEX
  8
2
 10
12.4993400000000001
 20
252.503940000000028
 30
0.0
  0
SEQEND
  0
POLYLINE
  8
2
  6
LINETYPE_2
 66
     1
 10
0.0
 20
0.0
 30
0.0
  0
VERTEX
  8
2
 10
12.4993400000000001
 20
252.503940000000028
 30
0.0
  0
VERTEX
  8
2
 10
12.4993400000000001
 20
249.504200000000026
 30
0.0
  0
SEQEND
  0
POLYLINE
  8
2
  6
LINETYPE_2
 66
     1
 10
0.0
 20
0.0
 30
0.0
  0
VERTEX
  8
2
 10
59.9998800000000045
 20
249.504200000000026
 30
0.0
  0
VERTEX
  8
2
 10
32.4993000000000052
 20
249.504200000000026
 30
0.0
  0
SEQEND
  0
POLYLINE
  8
2
  6
LINETYPE_2
 66
     1
 10
0.0
 20
0.0
 30
0.0
  0
VERTEX
  8
2
 10
107.5004200000000054
 20
249.504200000000026
 30
0.0
  0
VERTEX
  8
2
 10
79.9998400000000061
 20
249.504200000000026
 30
0.0
  0
SEQEND
  0
POLYLINE
  8
2
  6
LINETYPE_2
 66
     1
 10
0.0
 20
0.0
 30
0.0
  0
VERTEX
  8
2
 10
0.0
 20
199.501760000000019
 30
0.0
  0
VERTEX
  8
2
 10
0.0
 20
249.501660000000015
 30
0.0
  0
SEQEND
  0
POLYLINE
  8
2
  6
LINETYPE_2
 66
     1
 10
0.0
 20
0.0
 30
0.0
  0
VERTEX
  8
2
 10
0.0
 20
249.504200000000026
 30
0.0
  0
VERTEX
  8
2
 10
12.4993400000000001
 20
249.504200000000026
 30
0.0
  0
SEQEND
  0
POLYLINE
  8
2
  6
LINETYPE_2
 66
     1
 10
0.0
 20
0.0
 30
0.0
  0
VERTEX
  8
2
 10
0.0
 20
199.501760000000019
 30
0.0
  0
VERTEX
  8
2
 10
12.4993400000000001
 20
199.501760000000019
 30
0.0
  0
SEQEND
  0
POLYLINE
  8
2
  6
LINETYPE_2
 66
     1
 10
0.0
 20
0.0
 30
0.0
  0
VERTEX
  8
2
 10
139.999719999999996
 20
199.501760000000019
 30
0.0
  0
VERTEX
  8
2
 10
139.999719999999996
 20
249.501660000000015
 30
0.0
  0
SEQEND
  0
POLYLINE
  8
2
  6
LINETYPE_2
 66
     1
 10
0.0
 20
0.0
 30
0.0
  0
VERTEX
  8
2
 10
139.999719999999996
 20
249.504200000000026
 30
0.0
  0
VERTEX
  8
2
 10
127.5003800000000069
 20
249.504200000000026
 30
0.0
  0
SEQEND
  0
POLYLINE
  8
2
  6
LINETYPE_2
 66
     1
 10
0.0
 20
0.0
 30
0.0
  0
VERTEX
  8
2
 10
139.999719999999996
 20
199.501760000000019
 30
0.0
  0
VERTEX
  8
2
 10
127.5003800000000069
 20
199.501760000000019
 30
0.0
  0
SEQEND
  0
POLYLINE
  8
2
  6
LINETYPE_2
 66
     1
 10
0.0
 20
0.0
 30
0.0
  0
VERTEX
  8
2
 10
142.994380000000007
 20
158.506160000000023
 30
0.0
  0
VERTEX
  8
2
 10
142.994380000000007
 20
143.504919999999998
 30
0.0
  0
SEQEND
  0
POLYLINE
  8
2
  6
LINETYPE_2
 66
     1
 10
0.0
 20
0.0
 30
0.0
  0
VERTEX
  8
2
 10
142.994380000000007
 20
178.50612000000001
 30
0.0
  0
VERTEX
  8
2
 10
142.994380000000007
 20
193.504820000000024
 30
0.0
  0
SEQEND
  0
POLYLINE
  8
2
  6
LINETYPE_2
 66
     1
 10
0.0
 20
0.0
 30
0.0
  0
VERTEX
  8
2
 10
139.994640000000004
 20
178.50866000000002
 30
0.0
  0
VERTEX
  8
2
 10
142.994380000000007
 20
178.50866000000002
 30
0.0
  0
SEQEND
  0
POLYLINE
  8
2
  6
LINETYPE_2
 66
     1
 10
0.0
 20
0.0
 30
0.0
  0
VERTEX
  8
2
 10
142.994380000000007
 20
158.506160000000023
 30
0.0
  0
VERTEX
  8
2
 10
139.994640000000004
 20
158.506160000000023
 30
0.0
  0
SEQEND
  0
POLYLINE
  8
2
  6
LINETYPE_2
 66
     1
 10
0.0
 20
0.0
 30
0.0
  0
VERTEX
  8
2
 10
142.994380000000007
 20
214.505540000000025
 30
0.0
  0
VERTEX
  8
2
 10
142.994380000000007
 20
199.504300000000001
 30
0.0
  0
SEQEND
  0
POLYLINE
  8
2
  6
LINETYPE_2
 66
     1
 10
0.0
 20
0.0
 30
0.0
  0
VERTEX
  8
2
 10
142.994380000000007
 20
234.505500000000012
 30
0.0
  0
VERTEX
  8
2
 10
142.994380000000007
 20
249.504200000000026
 30
0.0
  0
SEQEND
  0
POLYLINE
  8
2
  6
LINETYPE_2
 66
     1
 10
0.0
 20
0.0
 30
0.0
  0
VERTEX
  8
2
 10
139.994640000000004
 20
234.508040000000022
 30
0.0
  0
VERTEX
  8
2
 10
142.994380000000007
 20
234.508040000000022
 30
0.0
  0
SEQEND
  0
POLYLINE
  8
2
  6
LINETYPE_2
 66
     1
 10
0.0
 20
0.0
 30
0.0
  0
VERTEX
  8
2
 10
142.994380000000007
 20
214.505540000000025
 30
0.0
  0
VERTEX
  8
2
 10
139.994640000000004
 20
214.505540000000025
 30
0.0
  0
SEQEND
  0
POLYLINE
  8
2
  6
LINETYPE_2
 66
     1
 10
0.0
 20
0.0
 30
0.0
  0
VERTEX
  8
2
 10
217.495120000000014
 20
143.504919999999998
 30
0.0
  0
VERTEX
  8
2
 10
217.495120000000014
 20
140.505179999999996
 30
0.0
  0
SEQEND
  0
POLYLINE
  8
2
  6
LINETYPE_2
 66
     1
 10
0.0
 20
0.0
 30
0.0
  0
VERTEX
  8
2
 10
197.495159999999998
 20
140.505179999999996
 30
0.0
  0
VERTEX
  8
2
 10
197.495159999999998
 20
143.504919999999998
 30
0.0
  0
SEQEND
  0
POLYLINE
  8
2
  6
LINETYPE_2
 66
     1
 10
0.0
 20
0.0
 30
0.0
  0
VERTEX
  8
2
 10
264.995660000000044
 20
143.504919999999998
 30
0.0
  0
VERTEX
  8
2
 10
264.995660000000044
 20
140.505179999999996
 30
0.0
  0
SEQEND
  0
POLYLINE
  8
2
  6
LINETYPE_2
 66
     1
 10
0.0
 20
0.0
 30
0.0
  0
VERTEX
  8
2
 10
244.995700000000028
 20
140.505179999999996
 30
0.0
  0
VERTEX
  8
2
 10
244.995700000000028
 20
143.504919999999998
 30
0.0
  0
SEQEND
  0
POLYLINE
  8
2
  6
LINETYPE_2
 66
     1
 10
0.0
 20
0.0
 30
0.0
  0
VERTEX
  8
2
 10
169.994580000000013
 20
143.504919999999998
 30
0.0
  0
VERTEX
  8
2
 10
169.994580000000013
 20
140.505179999999996
 30
0.0
  0
SEQEND
  0
POLYLINE
  8
2
  6
LINETYPE_2
 66
     1
 10
0.0
 20
0.0
 30
0.0
  0
VERTEX
  8
2
 10
149.994619999999998
 20
140.505179999999996
 30
0.0
  0
VERTEX
  8
2
 10
149.994619999999998
 20
143.504919999999998
 30
0.0
  0
SEQEND
  0
POLYLINE
  8
2
  6
LINETYPE_2
 66
     1
 10
0.0
 20
0.0
 30
0.0
  0
VERTEX
  8
2
 10
197.495159999999998
 20
143.504919999999998
 30
0.0
  0
VERTEX
  8
2
 10
169.994580000000013
 20
143.504919999999998
 30
0.0
  0
SEQEND
  0
POLYLINE
  8
2
  6
LINETYPE_2
 66
     1
 10
0.0
 20
0.0
 30
0.0
  0
VERTEX
  8
2
 10
244.995700000000028
 20
143.504919999999998
 30
0.0
  0
VERTEX
  8
2
 10
217.495120000000014
 20
143.504919999999998
 30
0.0
  0
SEQEND
  0
POLYLINE
  8
2
  6
LINETYPE_2
 66
     1
 10
0.0
 20
0.0
 30
0.0
  0
VERTEX
  8
2
 10
217.495120000000014
 20
193.507360000000006
 30
0.0
  0
VERTEX
  8
2
 10
217.495120000000014
 20
196.507100000000008
 30
0.0
  0
SEQEND
  0
POLYLINE
  8
2
  6
LINETYPE_2
 66
     1
 10
0.0
 20
0.0
 30
0.0
  0
VERTEX
  8
2
 10
217.495120000000014
 20
196.507100000000008
 30
0.0
  0
VERTEX
  8
2
 10
197.495159999999998
 20
196.507100000000008
 30
0.0
  0
SEQEND
  0
POLYLINE
  8
2
  6
LINETYPE_2
 66
     1
 10
0.0
 20
0.0
 30
0.0
  0
VERTEX
  8
2
 10
197.495159999999998
 20
196.507100000000008
 30
0.0
  0
VERTEX
  8
2
 10
197.495159999999998
 20
193.507360000000006
 30
0.0
  0
SEQEND
  0
POLYLINE
  8
2
  6
LINETYPE_2
 66
     1
 10
0.0
 20
0.0
 30
0.0
  0
VERTEX
  8
2
 10
264.995660000000044
 20
193.507360000000006
 30
0.0
  0
VERTEX
  8
2
 10
264.995660000000044
 20
196.507100000000008
 30
0.0
  0
SEQEND
  0
POLYLINE
  8
2
  6
LINETYPE_2
 66
     1
 10
0.0
 20
0.0
 30
0.0
  0
VERTEX
  8
2
 10
264.995660000000044
 20
196.507100000000008
 30
0.0
  0
VERTEX
  8
2
 10
244.995700000000028
 20
196.507100000000008
 30
0.0
  0
SEQEND
  0
POLYLINE
  8
2
  6
LINETYPE_2
 66
     1
 10
0.0
 20
0.0
 30
0.0
  0
VERTEX
  8
2
 10
244.995700000000028
 20
196.507100000000008
 30
0.0
  0
VERTEX
  8
2
 10
244.995700000000028
 20
193.507360000000006
 30
0.0
  0
SEQEND
  0
POLYLINE
  8
2
  6
LINETYPE_2
 66
     1
 10
0.0
 20
0.0
 30
0.0
  0
VERTEX
  8
2
 10
169.994580000000013
 20
193.507360000000006
 30
0.0
  0
VERTEX
  8
2
 10
169.994580000000013
 20
196.507100000000008
 30
0.0
  0
SEQEND
  0
POLYLINE
  8
2
  6
LINETYPE_2
 66
     1
 10
0.0
 20
0.0
 30
0.0
  0
VERTEX
  8
2
 10
169.994580000000013
 20
196.507100000000008
 30
0.0
  0
VERTEX
  8
2
 10
149.994619999999998
 20
196.507100000000008
 30
0.0
  0
SEQEND
  0
POLYLINE
  8
2
  6
LINETYPE_2
 66
     1
 10
0.0
 20
0.0
 30
0.0
  0
VERTEX
  8
2
 10
149.994619999999998
 20
196.507100000000008
 30
0.0
  0
VERTEX
  8
2
 10
149.994619999999998
 20
193.507360000000006
 30
0.0
  0
SEQEND
  0
POLYLINE
  8
2
  6
LINETYPE_2
 66
     1
 10
0.0
 20
0.0
 30
0.0
  0
VERTEX
  8
2
 10
197.495159999999998
 20
193.507360000000006
 30
0.0
  0
VERTEX
  8
2
 10
169.994580000000013
 20
193.507360000000006
 30
0.0
  0
SEQEND
  0
POLYLINE
  8
2
  6
LINETYPE_2
 66
     1
 10
0.0
 20
0.0
 30
0.0
  0
VERTEX
  8
2
 10
244.995700000000028
 20
193.507360000000006
 30
0.0
  0
VERTEX
  8
2
 10
217.495120000000014
 20
193.507360000000006
 30
0.0
  0
SEQEND
  0
POLYLINE
  8
2
  6
LINETYPE_2
 66
     1
 10
0.0
 20
0.0
 30
0.0
  0
VERTEX
  8
2
 10
217.495120000000014
 20
199.504300000000001
 30
0.0
  0
VERTEX
  8
2
 10
217.495120000000014
 20
196.504560000000026
 30
0.0
  0
SEQEND
  0
POLYLINE
  8
2
  6
LINETYPE_2
 66
     1
 10
0.0
 20
0.0
 30
0.0
  0
VERTEX
  8
2
 10
197.495159999999998
 20
196.504560000000026
 30
0.0
  0
VERTEX
  8
2
 10
197.495159999999998
 20
199.504300000000001
 30
0.0
  0
SEQEND
  0
POLYLINE
  8
2
  6
LINETYPE_2
 66
     1
 10
0.0
 20
0.0
 30
0.0
  0
VERTEX
  8
2
 10
264.995660000000044
 20
199.504300000000001
 30
0.0
  0
VERTEX
  8
2
 10
264.995660000000044
 20
196.504560000000026
 30
0.0
  0
SEQEND
  0
POLYLINE
  8
2
  6
LINETYPE_2
 66
     1
 10
0.0
 20
0.0
 30
0.0
  0
VERTEX
  8
2
 10
244.995700000000028
 20
196.504560000000026
 30
0.0
  0
VERTEX
  8
2
 10
244.995700000000028
 20
199.504300000000001
 30
0.0
  0
SEQEND
  0
POLYLINE
  8
2
  6
LINETYPE_2
 66
     1
 10
0.0
 20
0.0
 30
0.0
  0
VERTEX
  8
2
 10
169.994580000000013
 20
199.504300000000001
 30
0.0
  0
VERTEX
  8
2
 10
169.994580000000013
 20
196.504560000000026
 30
0.0
  0
SEQEND
  0
POLYLINE
  8
2
  6
LINETYPE_2
 66
     1
 10
0.0
 20
0.0
 30
0.0
  0
VERTEX
  8
2
 10
149.994619999999998
 20
196.504560000000026
 30
0.0
  0
VERTEX
  8
2
 10
149.994619999999998
 20
199.504300000000001
 30
0.0
  0
SEQEND
  0
POLYLINE
  8
2
  6
LINETYPE_2
 66
     1
 10
0.0
 20
0.0
 30
0.0
  0
VERTEX
  8
2
 10
197.495159999999998
 20
199.504300000000001
 30
0.0
  0
VERTEX
  8
2
 10
169.994580000000013
 20
199.504300000000001
 30
0.0
  0
SEQEND
  0
POLYLINE
  8
2
  6
LINETYPE_2
 66
     1
 10
0.0
 20
0.0
 30
0.0
  0
VERTEX
  8
2
 10
244.995700000000028
 20
199.504300000000001
 30
0.0
  0
VERTEX
  8
2
 10
217.495120000000014
 20
199.504300000000001
 30
0.0
  0
SEQEND
  0
POLYLINE
  8
2
  6
LINETYPE_2
 66
     1
 10
0.0
 20
0.0
 30
0.0
  0
VERTEX
  8
2
 10
217.495120000000014
 20
249.506740000000008
 30
0.0
  0
VERTEX
  8
2
 10
217.495120000000014
 20
252.50648000000001
 30
0.0
  0
SEQEND
  0
POLYLINE
  8
2
  6
LINETYPE_2
 66
     1
 10
0.0
 20
0.0
 30
0.0
  0
VERTEX
  8
2
 10
217.495120000000014
 20
252.50648000000001
 30
0.0
  0
VERTEX
  8
2
 10
197.495159999999998
 20
252.50648000000001
 30
0.0
  0
SEQEND
  0
POLYLINE
  8
2
  6
LINETYPE_2
 66
     1
 10
0.0
 20
0.0
 30
0.0
  0
VERTEX
  8
2
 10
197.495159999999998
 20
252.50648000000001
 30
0.0
  0
VERTEX
  8
2
 10
197.495159999999998
 20
249.506740000000008
 30
0.0
  0
SEQEND
  0
POLYLINE
  8
2
  6
LINETYPE_2
 66
     1
 10
0.0
 20
0.0
 30
0.0
  0
VERTEX
  8
2
 10
264.995660000000044
 20
249.506740000000008
 30
0.0
  0
VERTEX
  8
2
 10
264.995660000000044
 20
252.50648000000001
 30
0.0
  0
SEQEND
  0
POLYLINE
  8
2
  6
LINETYPE_2
 66
     1
 10
0.0
 20
0.0
 30
0.0
  0
VERTEX
  8
2
 10
264.995660000000044
 20
252.50648000000001
 30
0.0
  0
VERTEX
  8
2
 10
244.995700000000028
 20
252.50648000000001
 30
0.0
  0
SEQEND
  0
POLYLINE
  8
2
  6
LINETYPE_2
 66
     1
 10
0.0
 20
0.0
 30
0.0
  0
VERTEX
  8
2
 10
244.995700000000028
 20
252.50648000000001
 30
0.0
  0
VERTEX
  8
2
 10
244.995700000000028
 20
249.506740000000008
 30
0.0
  0
SEQEND
  0
POLYLINE
  8
2
  6
LINETYPE_2
 66
     1
 10
0.0
 20
0.0
 30
0.0
  0
VERTEX
  8
2
 10
169.994580000000013
 20
249.506740000000008
 30
0.0
  0
VERTEX
  8
2
 10
169.994580000000013
 20
252.50648000000001
 30
0.0
  0
SEQEND
  0
POLYLINE
  8
2
  6
LINETYPE_2
 66
     1
 10
0.0
 20
0.0
 30
0.0
  0
VERTEX
  8
2
 10
169.994580000000013
 20
252.50648000000001
 30
0.0
  0
VERTEX
  8
2
 10
149.994619999999998
 20
252.50648000000001
 30
0.0
  0
SEQEND
  0
POLYLINE
  8
2
  6
LINETYPE_2
 66
     1
 10
0.0
 20
0.0
 30
0.0
  0
VERTEX
  8
2
 10
149.994619999999998
 20
252.50648000000001
 30
0.0
  0
VERTEX
  8
2
 10
149.994619999999998
 20
249.506740000000008
 30
0.0
  0
SEQEND
  0
POLYLINE
  8
2
  6
LINETYPE_2
 66
     1
 10
0.0
 20
0.0
 30
0.0
  0
VERTEX
  8
2
 10
197.495159999999998
 20
249.506740000000008
 30
0.0
  0
VERTEX
  8
2
 10
169.994580000000013
 20
249.506740000000008
 30
0.0
  0
SEQEND
  0
POLYLINE
  8
2
  6
LINETYPE_2
 66
     1
 10
0.0
 20
0.0
 30
0.0
  0
VERTEX
  8
2
 10
244.995700000000028
 20
249.506740000000008
 30
0.0
  0
VERTEX
  8
2
 10
217.495120000000014
 20
249.506740000000008
 30
0.0
  0
SEQEND
  0
POLYLINE
  8
2
  6
LINETYPE_2
 66
     1
 10
0.0
 20
0.0
 30
0.0
  0
VERTEX
  8
2
 10
149.994619999999998
 20
249.506740000000008
 30
0.0
  0
VERTEX
  8
2
 10
142.994380000000007
 20
249.506740000000008
 30
0.0
  0
SEQEND
  0
POLYLINE
  8
2
  6
LINETYPE_2
 66
     1
 10
0.0
 20
0.0
 30
0.0
  0
VERTEX
  8
2
 10
149.994619999999998
 20
199.504300000000001
 30
0.0
  0
VERTEX
  8
2
 10
142.994380000000007
 20
199.504300000000001
 30
0.0
  0
SEQEND
  0
POLYLINE
  8
2
  6
LINETYPE_2
 66
     1
 10
0.0
 20
0.0
 30
0.0
  0
VERTEX
  8
2
 10
149.994619999999998
 20
193.507360000000006
 30
0.0
  0
VERTEX
  8
2
 10
142.994380000000007
 20
193.507360000000006
 30
0.0
  0
SEQEND
  0
POLYLINE
  8
2
  6
LINETYPE_2
 66
     1
 10
0.0
 20
0.0
 30
0.0
  0
VERTEX
  8
2
 10
149.994619999999998
 20
143.504919999999998
 30
0.0
  0
VERTEX
  8
2
 10
142.994380000000007
 20
143.504919999999998
 30
0.0
  0
SEQEND
  0
POLYLINE
  8
2
  6
LINETYPE_2
 66
     1
 10
0.0
 20
0.0
 30
0.0
  0
VERTEX
  8
2
 10
271.993359999999996
 20
158.506160000000023
 30
0.0
  0
VERTEX
  8
2
 10
271.993359999999996
 20
143.504919999999998
 30
0.0
  0
SEQEND
  0
POLYLINE
  8
2
  6
LINETYPE_2
 66
     1
 10
0.0
 20
0.0
 30
0.0
  0
VERTEX
  8
2
 10
271.993359999999996
 20
178.50612000000001
 30
0.0
  0
VERTEX
  8
2
 10
271.993359999999996
 20
193.504820000000024
 30
0.0
  0
SEQEND
  0
POLYLINE
  8
2
  6
LINETYPE_2
 66
     1
 10
0.0
 20
0.0
 30
0.0
  0
VERTEX
  8
2
 10
271.993359999999996
 20
178.50866000000002
 30
0.0
  0
VERTEX
  8
2
 10
274.993100000000027
 20
178.50866000000002
 30
0.0
  0
SEQEND
  0
POLYLINE
  8
2
  6
LINETYPE_2
 66
     1
 10
0.0
 20
0.0
 30
0.0
  0
VERTEX
  8
2
 10
274.993100000000027
 20
158.506160000000023
 30
0.0
  0
VERTEX
  8
2
 10
271.993359999999996
 20
158.506160000000023
 30
0.0
  0
SEQEND
  0
POLYLINE
  8
2
  6
LINETYPE_2
 66
     1
 10
0.0
 20
0.0
 30
0.0
  0
VERTEX
  8
2
 10
271.993359999999996
 20
214.505540000000025
 30
0.0
  0
VERTEX
  8
2
 10
271.993359999999996
 20
199.504300000000001
 30
0.0
  0
SEQEND
  0
POLYLINE
  8
2
  6
LINETYPE_2
 66
     1
 10
0.0
 20
0.0
 30
0.0
  0
VERTEX
  8
2
 10
271.993359999999996
 20
234.505500000000012
 30
0.0
  0
VERTEX
  8
2
 10
271.993359999999996
 20
249.504200000000026
 30
0.0
  0
SEQEND
  0
POLYLINE
  8
2
  6
LINETYPE_2
 66
     1
 10
0.0
 20
0.0
 30
0.0
  0
VERTEX
  8
2
 10
271.993359999999996
 20
234.508040000000022
 30
0.0
  0
VERTEX
  8
2
 10
274.993100000000027
 20
234.508040000000022
 30
0.0
  0
SEQEND
  0
POLYLINE
  8
2
  6
LINETYPE_2
 66
     1
 10
0.0
 20
0.0
 30
0.0
  0
VERTEX
  8
2
 10
274.993100000000027
 20
234.508040000000022
 30
0.0
  0
VERTEX
  8
2
 10
274.993100000000027
 20
214.508080000000007
 30
0.0
  0
SEQEND
  0
POLYLINE
  8
2
  6
LINETYPE_2
 66
     1
 10
0.0
 20
0.0
 30
0.0
  0
VERTEX
  8
2
 10
274.993100000000027
 20
214.505540000000025
 30
0.0
  0
VERTEX
  8
2
 10
271.993359999999996
 20
214.505540000000025
 30
0.0
  0
SEQEND
  0
POLYLINE
  8
2
  6
LINETYPE_2
 66
     1
 10
0.0
 20
0.0
 30
0.0
  0
VERTEX
  8
2
 10
264.995660000000044
 20
143.504919999999998
 30
0.0
  0
VERTEX
  8
2
 10
271.993359999999996
 20
143.504919999999998
 30
0.0
  0
SEQEND
  0
POLYLINE
  8
2
  6
LINETYPE_2
 66
     1
 10
0.0
 20
0.0
 30
0.0
  0
VERTEX
  8
2
 10
264.995660000000044
 20
193.507360000000006
 30
0.0
  0
VERTEX
  8
2
 10
271.993359999999996
 20
193.507360000000006
 30
0.0
  0
SEQEND
  0
POLYLINE
  8
2
  6
LINETYPE_2
 66
     1
 10
0.0
 20
0.0
 30
0.0
  0
VERTEX
  8
2
 10
264.995660000000044
 20
199.504300000000001
 30
0.0
  0
VERTEX
  8
2
 10
271.993359999999996
 20
199.504300000000001
 30
0.0
  0
SEQEND
  0
POLYLINE
  8
2
  6
LINETYPE_2
 66
     1
 10
0.0
 20
0.0
 30
0.0
  0
VERTEX
  8
2
 10
264.995660000000044
 20
249.506740000000008
 30
0.0
  0
VERTEX
  8
2
 10
271.993359999999996
 20
249.506740000000008
 30
0.0
  0
SEQEND
  0
CIRCLE
  8
3
  6
LINETYPE_2
999
CadStd_LW=0.2286
 10
292.498780000000011
 20
128.000760000000014
 30
0.0
 40
2.0015200000000002
  0
CIRCLE
  8
3
  6
LINETYPE_2
999
CadStd_LW=0.2286
 10
407.49982
 20
128.000760000000014
 30
0.0
 40
1.9989800000000002
  0
CIRCLE
  8
3
  6
LINETYPE_2
999
CadStd_LW=0.2286
 10
292.498780000000011
 20
13.0022600000000015
 30
0.0
 40
2.0015200000000002
  0
CIRCLE
  8
3
  6
LINETYPE_2
999
CadStd_LW=0.2286
 10
407.49982
 20
13.0022600000000015
 30
0.0
 40
1.9989800000000002
  0
POLYLINE
  8
3
  6
LINETYPE_2
 66
     1
 10
0.0
 20
0.0
 30
0.0
  0
VERTEX
  8
3
 10
339.999320000000012
 20
6.5024000000000006
 30
0.0
  0
VERTEX
  8
3
 10
359.999279999999999
 20
6.5024000000000006
 30
0.0
  0
SEQEND
  0
POLYLINE
  8
3
  6
LINETYPE_2
 66
     1
 10
0.0
 20
0.0
 30
0.0
  0
VERTEX
  8
3
 10
359.999279999999999
 20
6.5024000000000006
 30
0.0
  0
VERTEX
  8
3
 10
359.999279999999999
 20
3.5026600000000001
 30
0.0
  0
SEQEND
  0
POLYLINE
  8
3
  6
LINETYPE_2
 66
     1
 10
0.0
 20
0.0
 30
0.0
  0
VERTEX
  8
3
 10
359.999279999999999
 20
3.5026600000000001
 30
0.0
  0
VERTEX
  8
3
 10
339.999320000000012
 20
3.5026600000000001
 30
0.0
  0
SEQEND
  0
POLYLINE
  8
3
  6
LINETYPE_2
 66
     1
 10
0.0
 20
0.0
 30
0.0
  0
VERTEX
  8
3
 10
339.999320000000012
 20
3.5026600000000001
 30
0.0
  0
VERTEX
  8
3
 10
339.999320000000012
 20
6.5024000000000006
 30
0.0
  0
SEQEND
  0
POLYLINE
  8
3
  6
LINETYPE_2
 66
     1
 10
0.0
 20
0.0
 30
0.0
  0
VERTEX
  8
3
 10
387.499860000000012
 20
6.5024000000000006
 30
0.0
  0
VERTEX
  8
3
 10
407.49982
 20
6.5024000000000006
 30
0.0
  0
SEQEND
  0
POLYLINE
  8
3
  6
LINETYPE_2
 66
     1
 10
0.0
 20
0.0
 30
0.0
  0
VERTEX
  8
3
 10
407.49982
 20
6.5024000000000006
 30
0.0
  0
VERTEX
  8
3
 10
407.49982
 20
3.5026600000000001
 30
0.0
  0
SEQEND
  0
POLYLINE
  8
3
  6
LINETYPE_2
 66
     1
 10
0.0
 20
0.0
 30
0.0
  0
VERTEX
  8
3
 10
407.49982
 20
3.5026600000000001
 30
0.0
  0
VERTEX
  8
3
 10
387.499860000000012
 20
3.5026600000000001
 30
0.0
  0
SEQEND
  0
POLYLINE
  8
3
  6
LINETYPE_2
 66
     1
 10
0.0
 20
0.0
 30
0.0
  0
VERTEX
  8
3
 10
387.499860000000012
 20
3.5026600000000001
 30
0.0
  0
VERTEX
  8
3
 10
387.499860000000012
 20
6.5024000000000006
 30
0.0
  0
SEQEND
  0
POLYLINE
  8
3
  6
LINETYPE_2
 66
     1
 10
0.0
 20
0.0
 30
0.0
  0
VERTEX
  8
3
 10
292.498780000000011
 20
6.5024000000000006
 30
0.0
  0
VERTEX
  8
3
 10
312.498739999999998
 20
6.5024000000000006
 30
0.0
  0
SEQEND
  0
POLYLINE
  8
3
  6
LINETYPE_2
 66
     1
 10
0.0
 20
0.0
 30
0.0
  0
VERTEX
  8
3
 10
312.498739999999998
 20
6.5024000000000006
 30
0.0
  0
VERTEX
  8
3
 10
312.498739999999998
 20
3.5026600000000001
 30
0.0
  0
SEQEND
  0
POLYLINE
  8
3
  6
LINETYPE_2
 66
     1
 10
0.0
 20
0.0
 30
0.0
  0
VERTEX
  8
3
 10
312.498739999999998
 20
3.5026600000000001
 30
0.0
  0
VERTEX
  8
3
 10
292.498780000000011
 20
3.5026600000000001
 30
0.0
  0
SEQEND
  0
POLYLINE
  8
3
  6
LINETYPE_2
 66
     1
 10
0.0
 20
0.0
 30
0.0
  0
VERTEX
  8
3
 10
292.498780000000011
 20
3.5026600000000001
 30
0.0
  0
VERTEX
  8
3
 10
292.498780000000011
 20
6.5024000000000006
 30
0.0
  0
SEQEND
  0
POLYLINE
  8
3
  6
LINETYPE_2
 66
     1
 10
0.0
 20
0.0
 30
0.0
  0
VERTEX
  8
3
 10
339.999320000000012
 20
137.500360000000001
 30
0.0
  0
VERTEX
  8
3
 10
359.999279999999999
 20
137.500360000000001
 30
0.0
  0
SEQEND
  0
POLYLINE
  8
3
  6
LINETYPE_2
 66
     1
 10
0.0
 20
0.0
 30
0.0
  0
VERTEX
  8
3
 10
359.999279999999999
 20
137.500360000000001
 30
0.0
  0
VERTEX
  8
3
 10
359.999279999999999
 20
134.500619999999998
 30
0.0
  0
SEQEND
  0
POLYLINE
  8
3
  6
LINETYPE_2
 66
     1
 10
0.0
 20
0.0
 30
0.0
  0
VERTEX
  8
3
 10
359.999279999999999
 20
134.500619999999998
 30
0.0
  0
VERTEX
  8
3
 10
339.999320000000012
 20
134.500619999999998
 30
0.0
  0
SEQEND
  0
POLYLINE
  8
3
  6
LINETYPE_2
 66
     1
 10
0.0
 20
0.0
 30
0.0
  0
VERTEX
  8
3
 10
339.999320000000012
 20
134.500619999999998
 30
0.0
  0
VERTEX
  8
3
 10
339.999320000000012
 20
137.500360000000001
 30
0.0
  0
SEQEND
  0
POLYLINE
  8
3
  6
LINETYPE_2
 66
     1
 10
0.0
 20
0.0
 30
0.0
  0
VERTEX
  8
3
 10
387.499860000000012
 20
137.500360000000001
 30
0.0
  0
VERTEX
  8
3
 10
407.49982
 20
137.500360000000001
 30
0.0
  0
SEQEND
  0
POLYLINE
  8
3
  6
LINETYPE_2
 66
     1
 10
0.0
 20
0.0
 30
0.0
  0
VERTEX
  8
3
 10
407.49982
 20
137.500360000000001
 30
0.0
  0
VERTEX
  8
3
 10
407.49982
 20
134.500619999999998
 30
0.0
  0
SEQEND
  0
POLYLINE
  8
3
  6
LINETYPE_2
 66
     1
 10
0.0
 20
0.0
 30
0.0
  0
VERTEX
  8
3
 10
407.49982
 20
134.500619999999998
 30
0.0
  0
VERTEX
  8
3
 10
387.499860000000012
 20
134.500619999999998
 30
0.0
  0
SEQEND
  0
POLYLINE
  8
3
  6
LINETYPE_2
 66
     1
 10
0.0
 20
0.0
 30
0.0
  0
VERTEX
  8
3
 10
387.499860000000012
 20
134.500619999999998
 30
0.0
  0
VERTEX
  8
3
 10
387.499860000000012
 20
137.500360000000001
 30
0.0
  0
SEQEND
  0
POLYLINE
  8
3
  6
LINETYPE_2
 66
     1
 10
0.0
 20
0.0
 30
0.0
  0
VERTEX
  8
3
 10
292.498780000000011
 20
137.500360000000001
 30
0.0
  0
VERTEX
  8
3
 10
312.498739999999998
 20
137.500360000000001
 30
0.0
  0
SEQEND
  0
POLYLINE
  8
3
  6
LINETYPE_2
 66
     1
 10
0.0
 20
0.0
 30
0.0
  0
VERTEX
  8
3
 10
312.498739999999998
 20
137.500360000000001
 30
0.0
  0
VERTEX
  8
3
 10
312.498739999999998
 20
134.500619999999998
 30
0.0
  0
SEQEND
  0
POLYLINE
  8
3
  6
LINETYPE_2
 66
     1
 10
0.0
 20
0.0
 30
0.0
  0
VERTEX
  8
3
 10
312.498739999999998
 20
134.500619999999998
 30
0.0
  0
VERTEX
  8
3
 10
292.498780000000011
 20
134.500619999999998
 30
0.0
  0
SEQEND
  0
POLYLINE
  8
3
  6
LINETYPE_2
 66
     1
 10
0.0
 20
0.0
 30
0.0
  0
VERTEX
  8
3
 10
292.498780000000011
 20
134.500619999999998
 30
0.0
  0
VERTEX
  8
3
 10
292.498780000000011
 20
137.500360000000001
 30
0.0
  0
SEQEND
  0
POLYLINE
  8
3
  6
LINETYPE_2
 66
     1
 10
0.0
 20
0.0
 30
0.0
  0
VERTEX
  8
3
 10
413.999680000000012
 20
60.5028000000000006
 30
0.0
  0
VERTEX
  8
3
 10
413.999680000000012
 20
80.5027600000000092
 30
0.0
  0
SEQEND
  0
POLYLINE
  8
3
  6
LINETYPE_2
 66
     1
 10
0.0
 20
0.0
 30
0.0
  0
VERTEX
  8
3
 10
413.999680000000012
 20
80.5027600000000092
 30
0.0
  0
VERTEX
  8
3
 10
416.999420000000043
 20
80.5027600000000092
 30
0.0
  0
SEQEND
  0
POLYLINE
  8
3
  6
LINETYPE_2
 66
     1
 10
0.0
 20
0.0
 30
0.0
  0
VERTEX
  8
3
 10
416.999420000000043
 20
80.5027600000000092
 30
0.0
  0
VERTEX
  8
3
 10
416.999420000000043
 20
60.5028000000000006
 30
0.0
  0
SEQEND
  0
POLYLINE
  8
3
  6
LINETYPE_2
 66
     1
 10
0.0
 20
0.0
 30
0.0
  0
VERTEX
  8
3
 10
416.999420000000043
 20
60.5028000000000006
 30
0.0
  0
VERTEX
  8
3
 10
413.999680000000012
 20
60.5028000000000006
 30
0.0
  0
SEQEND
  0
POLYLINE
  8
3
  6
LINETYPE_2
 66
     1
 10
0.0
 20
0.0
 30
0.0
  0
VERTEX
  8
3
 10
413.999680000000012
 20
108.0033400000000086
 30
0.0
  0
VERTEX
  8
3
 10
413.999680000000012
 20
128.003299999999996
 30
0.0
  0
SEQEND
  0
POLYLINE
  8
3
  6
LINETYPE_2
 66
     1
 10
0.0
 20
0.0
 30
0.0
  0
VERTEX
  8
3
 10
413.999680000000012
 20
128.003299999999996
 30
0.0
  0
VERTEX
  8
3
 10
416.999420000000043
 20
128.003299999999996
 30
0.0
  0
SEQEND
  0
POLYLINE
  8
3
  6
LINETYPE_2
 66
     1
 10
0.0
 20
0.0
 30
0.0
  0
VERTEX
  8
3
 10
416.999420000000043
 20
128.003299999999996
 30
0.0
  0
VERTEX
  8
3
 10
416.999420000000043
 20
108.0033400000000086
 30
0.0
  0
SEQEND
  0
POLYLINE
  8
3
  6
LINETYPE_2
 66
     1
 10
0.0
 20
0.0
 30
0.0
  0
VERTEX
  8
3
 10
416.999420000000043
 20
108.0033400000000086
 30
0.0
  0
VERTEX
  8
3
 10
413.999680000000012
 20
108.0033400000000086
 30
0.0
  0
SEQEND
  0
POLYLINE
  8
3
  6
LINETYPE_2
 66
     1
 10
0.0
 20
0.0
 30
0.0
  0
VERTEX
  8
3
 10
413.999680000000012
 20
13.0022600000000015
 30
0.0
  0
VERTEX
  8
3
 10
413.999680000000012
 20
33.0022200000000012
 30
0.0
  0
SEQEND
  0
POLYLINE
  8
3
  6
LINETYPE_2
 66
     1
 10
0.0
 20
0.0
 30
0.0
  0
VERTEX
  8
3
 10
413.999680000000012
 20
33.0022200000000012
 30
0.0
  0
VERTEX
  8
3
 10
416.999420000000043
 20
33.0022200000000012
 30
0.0
  0
SEQEND
  0
POLYLINE
  8
3
  6
LINETYPE_2
 66
     1
 10
0.0
 20
0.0
 30
0.0
  0
VERTEX
  8
3
 10
416.999420000000043
 20
33.0022200000000012
 30
0.0
  0
VERTEX
  8
3
 10
416.999420000000043
 20
13.0022600000000015
 30
0.0
  0
SEQEND
  0
POLYLINE
  8
3
  6
LINETYPE_2
 66
     1
 10
0.0
 20
0.0
 30
0.0
  0
VERTEX
  8
3
 10
416.999420000000043
 20
13.0022600000000015
 30
0.0
  0
VERTEX
  8
3
 10
413.999680000000012
 20
13.0022600000000015
 30
0.0
  0
SEQEND
  0
POLYLINE
  8
3
  6
LINETYPE_2
 66
     1
 10
0.0
 20
0.0
 30
0.0
  0
VERTEX
  8
3
 10
282.999180000000024
 20
60.5028000000000006
 30
0.0
  0
VERTEX
  8
3
 10
282.999180000000024
 20
80.5027600000000092
 30
0.0
  0
SEQEND
  0
POLYLINE
  8
3
  6
LINETYPE_2
 66
     1
 10
0.0
 20
0.0
 30
0.0
  0
VERTEX
  8
3
 10
282.999180000000024
 20
80.5027600000000092
 30
0.0
  0
VERTEX
  8
3
 10
285.998919999999998
 20
80.5027600000000092
 30
0.0
  0
SEQEND
  0
POLYLINE
  8
3
  6
LINETYPE_2
 66
     1
 10
0.0
 20
0.0
 30
0.0
  0
VERTEX
  8
3
 10
285.998919999999998
 20
80.5027600000000092
 30
0.0
  0
VERTEX
  8
3
 10
285.998919999999998
 20
60.5028000000000006
 30
0.0
  0
SEQEND
  0
POLYLINE
  8
3
  6
LINETYPE_2
 66
     1
 10
0.0
 20
0.0
 30
0.0
  0
VERTEX
  8
3
 10
285.998919999999998
 20
60.5028000000000006
 30
0.0
  0
VERTEX
  8
3
 10
282.999180000000024
 20
60.5028000000000006
 30
0.0
  0
SEQEND
  0
POLYLINE
  8
3
  6
LINETYPE_2
 66
     1
 10
0.0
 20
0.0
 30
0.0
  0
VERTEX
  8
3
 10
282.999180000000024
 20
108.0033400000000086
 30
0.0
  0
VERTEX
  8
3
 10
282.999180000000024
 20
128.003299999999996
 30
0.0
  0
SEQEND
  0
POLYLINE
  8
3
  6
LINETYPE_2
 66
     1
 10
0.0
 20
0.0
 30
0.0
  0
VERTEX
  8
3
 10
282.999180000000024
 20
128.003299999999996
 30
0.0
  0
VERTEX
  8
3
 10
285.998919999999998
 20
128.003299999999996
 30
0.0
  0
SEQEND
  0
POLYLINE
  8
3
  6
LINETYPE_2
 66
     1
 10
0.0
 20
0.0
 30
0.0
  0
VERTEX
  8
3
 10
285.998919999999998
 20
128.003299999999996
 30
0.0
  0
VERTEX
  8
3
 10
285.998919999999998
 20
108.0033400000000086
 30
0.0
  0
SEQEND
  0
POLYLINE
  8
3
  6
LINETYPE_2
 66
     1
 10
0.0
 20
0.0
 30
0.0
  0
VERTEX
  8
3
 10
285.998919999999998
 20
108.0033400000000086
 30
0.0
  0
VERTEX
  8
3
 10
282.999180000000024
 20
108.0033400000000086
 30
0.0
  0
SEQEND
  0
POLYLINE
  8
3
  6
LINETYPE_2
 66
     1
 10
0.0
 20
0.0
 30
0.0
  0
VERTEX
  8
3
 10
282.999180000000024
 20
13.0022600000000015
 30
0.0
  0
VERTEX
  8
3
 10
282.999180000000024
 20
33.0022200000000012
 30
0.0
  0
SEQEND
  0
POLYLINE
  8
3
  6
LINETYPE_2
 66
     1
 10
0.0
 20
0.0
 30
0.0
  0
VERTEX
  8
3
 10
282.999180000000024
 20
33.0022200000000012
 30
0.0
  0
VERTEX
  8
3
 10
285.998919999999998
 20
33.0022200000000012
 30
0.0
  0
SEQEND
  0
POLYLINE
  8
3
  6
LINETYPE_2
 66
     1
 10
0.0
 20
0.0
 30
0.0
  0
VERTEX
  8
3
 10
285.998919999999998
 20
33.0022200000000012
 30
0.0
  0
VERTEX
  8
3
 10
285.998919999999998
 20
13.0022600000000015
 30
0.0
  0
SEQEND
  0
POLYLINE
  8
3
  6
LINETYPE_2
 66
     1
 10
0.0
 20
0.0
 30
0.0
  0
VERTEX
  8
3
 10
285.998919999999998
 20
13.0022600000000015
 30
0.0
  0
VERTEX
  8
3
 10
282.999180000000024
 20
13.0022600000000015
 30
0.0
  0
SEQEND
  0
CIRCLE
  8
3
  6
LINETYPE_2
999
CadStd_LW=0.2286
 10
301.000159999999994
 20
119.4993800000000022
 30
0.0
 40
1.9989800000000002
  0
CIRCLE
  8
3
  6
LINETYPE_2
999
CadStd_LW=0.2286
 10
308.000400000000013
 20
119.4993800000000022
 30
0.0
 40
1.9989800000000002
  0
CIRCLE
  8
3
  6
LINETYPE_2
999
CadStd_LW=0.2286
 10
315.000640000000033
 20
119.4993800000000022
 30
0.0
 40
1.9989800000000002
  0
CIRCLE
  8
3
  6
LINETYPE_2
999
CadStd_LW=0.2286
 10
322.000879999999995
 20
119.4993800000000022
 30
0.0
 40
1.9989800000000002
  0
CIRCLE
  8
3
  6
LINETYPE_2
999
CadStd_LW=0.2286
 10
329.001120000000014
 20
119.4993800000000022
 30
0.0
 40
1.9989800000000002
  0
CIRCLE
  8
3
  6
LINETYPE_2
999
CadStd_LW=0.2286
 10
336.001360000000034
 20
119.4993800000000022
 30
0.0
 40
1.9989800000000002
  0
CIRCLE
  8
3
  6
LINETYPE_2
999
CadStd_LW=0.2286
 10
343.001599999999996
 20
119.4993800000000022
 30
0.0
 40
1.9989800000000002
  0
CIRCLE
  8
3
  6
LINETYPE_2
999
CadStd_LW=0.2286
 10
350.001840000000016
 20
119.4993800000000022
 30
0.0
 40
1.9989800000000002
  0
CIRCLE
  8
3
  6
LINETYPE_2
999
CadStd_LW=0.2286
 10
357.002080000000035
 20
119.4993800000000022
 30
0.0
 40
1.9989800000000002
  0
CIRCLE
  8
3
  6
LINETYPE_2
999
CadStd_LW=0.2286
 10
364.002319999999997
 20
119.4993800000000022
 30
0.0
 40
1.9989800000000002
  0
CIRCLE
  8
3
  6
LINETYPE_2
999
CadStd_LW=0.2286
 10
371.002560000000017
 20
119.4993800000000022
 30
0.0
 40
1.9989800000000002
  0
CIRCLE
  8
3
  6
LINETYPE_2
999
CadStd_LW=0.2286
 10
301.000159999999994
 20
112.4991400000000112
 30
0.0
 40
1.9989800000000002
  0
CIRCLE
  8
3
  6
LINETYPE_2
999
CadStd_LW=0.2286
 10
308.000400000000013
 20
112.4991400000000112
 30
0.0
 40
1.9989800000000002
  0
CIRCLE
  8
3
  6
LINETYPE_2
999
CadStd_LW=0.2286
 10
315.000640000000033
 20
112.4991400000000112
 30
0.0
 40
1.9989800000000002
  0
CIRCLE
  8
3
  6
LINETYPE_2
999
CadStd_LW=0.2286
 10
322.000879999999995
 20
112.4991400000000112
 30
0.0
 40
1.9989800000000002
  0
CIRCLE
  8
3
  6
LINETYPE_2
999
CadStd_LW=0.2286
 10
329.001120000000014
 20
112.4991400000000112
 30
0.0
 40
1.9989800000000002
  0
CIRCLE
  8
3
  6
LINETYPE_2
999
CadStd_LW=0.2286
 10
336.001360000000034
 20
112.4991400000000112
 30
0.0
 40
1.9989800000000002
  0
CIRCLE
  8
3
  6
LINETYPE_2
999
CadStd_LW=0.2286
 10
343.001599999999996
 20
112.4991400000000112
 30
0.0
 40
1.9989800000000002
  0
CIRCLE
  8
3
  6
LINETYPE_2
999
CadStd_LW=0.2286
 10
350.001840000000016
 20
112.4991400000000112
 30
0.0
 40
1.9989800000000002
  0
CIRCLE
  8
3
  6
LINETYPE_2
999
CadStd_LW=0.2286
 10
357.002080000000035
 20
112.4991400000000112
 30
0.0
 40
1.9989800000000002
  0
CIRCLE
  8
3
  6
LINETYPE_2
999
CadStd_LW=0.2286
 10
364.002319999999997
 20
112.4991400000000112
 30
0.0
 40
1.9989800000000002
  0
CIRCLE
  8
3
  6
LINETYPE_2
999
CadStd_LW=0.2286
 10
371.002560000000017
 20
112.4991400000000112
 30
0.0
 40
1.9989800000000002
  0
CIRCLE
  8
3
  6
LINETYPE_2
999
CadStd_LW=0.2286
 10
301.000159999999994
 20
105.4989000000000061
 30
0.0
 40
1.9989800000000002
  0
CIRCLE
  8
3
  6
LINETYPE_2
999
CadStd_LW=0.2286
 10
308.000400000000013
 20
105.4989000000000061
 30
0.0
 40
1.9989800000000002
  0
CIRCLE
  8
3
  6
LINETYPE_2
999
CadStd_LW=0.2286
 10
315.000640000000033
 20
105.4989000000000061
 30
0.0
 40
1.9989800000000002
  0
CIRCLE
  8
3
  6
LINETYPE_2
999
CadStd_LW=0.2286
 10
322.000879999999995
 20
105.4989000000000061
 30
0.0
 40
1.9989800000000002
  0
CIRCLE
  8
3
  6
LINETYPE_2
999
CadStd_LW=0.2286
 10
329.001120000000014
 20
105.4989000000000061
 30
0.0
 40
1.9989800000000002
  0
CIRCLE
  8
3
  6
LINETYPE_2
999
CadStd_LW=0.2286
 10
336.001360000000034
 20
105.4989000000000061
 30
0.0
 40
1.9989800000000002
  0
CIRCLE
  8
3
  6
LINETYPE_2
999
CadStd_LW=0.2286
 10
343.001599999999996
 20
105.4989000000000061
 30
0.0
 40
1.9989800000000002
  0
CIRCLE
  8
3
  6
LINETYPE_2
999
CadStd_LW=0.2286
 10
350.001840000000016
 20
105.4989000000000061
 30
0.0
 40
1.9989800000000002
  0
CIRCLE
  8
3
  6
LINETYPE_2
999
CadStd_LW=0.2286
 10
357.002080000000035
 20
105.4989000000000061
 30
0.0
 40
1.9989800000000002
  0
CIRCLE
  8
3
  6
LINETYPE_2
999
CadStd_LW=0.2286
 10
364.002319999999997
 20
105.4989000000000061
 30
0.0
 40
1.9989800000000002
  0
CIRCLE
  8
3
  6
LINETYPE_2
999
CadStd_LW=0.2286
 10
371.002560000000017
 20
105.4989000000000061
 30
0.0
 40
1.9989800000000002
  0
CIRCLE
  8
3
  6
LINETYPE_2
999
CadStd_LW=0.2286
 10
301.000159999999994
 20
98.498660000000001
 30
0.0
 40
1.9989800000000002
  0
CIRCLE
  8
3
  6
LINETYPE_2
999
CadStd_LW=0.2286
 10
308.000400000000013
 20
98.498660000000001
 30
0.0
 40
1.9989800000000002
  0
CIRCLE
  8
3
  6
LINETYPE_2
999
CadStd_LW=0.2286
 10
315.000640000000033
 20
98.498660000000001
 30
0.0
 40
1.9989800000000002
  0
CIRCLE
  8
3
  6
LINETYPE_2
999
CadStd_LW=0.2286
 10
322.000879999999995
 20
98.498660000000001
 30
0.0
 40
1.9989800000000002
  0
CIRCLE
  8
3
  6
LINETYPE_2
999
CadStd_LW=0.2286
 10
329.001120000000014
 20
98.498660000000001
 30
0.0
 40
1.9989800000000002
  0
CIRCLE
  8
3
  6
LINETYPE_2
999
CadStd_LW=0.2286
 10
336.001360000000034
 20
98.498660000000001
 30
0.0
 40
1.9989800000000002
  0
CIRCLE
  8
3
  6
LINETYPE_2
999
CadStd_LW=0.2286
 10
343.001599999999996
 20
98.498660000000001
 30
0.0
 40
1.9989800000000002
  0
CIRCLE
  8
3
  6
LINETYPE_2
999
CadStd_LW=0.2286
 10
350.001840000000016
 20
98.498660000000001
 30
0.0
 40
1.9989800000000002
  0
CIRCLE
  8
3
  6
LINETYPE_2
999
CadStd_LW=0.2286
 10
357.002080000000035
 20
98.498660000000001
 30
0.0
 40
1.9989800000000002
  0
CIRCLE
  8
3
  6
LINETYPE_2
999
CadStd_LW=0.2286
 10
364.002319999999997
 20
98.498660000000001
 30
0.0
 40
1.9989800000000002
  0
CIRCLE
  8
3
  6
LINETYPE_2
999
CadStd_LW=0.2286
 10
371.002560000000017
 20
98.498660000000001
 30
0.0
 40
1.9989800000000002
  0
CIRCLE
  8
3
  6
LINETYPE_2
999
CadStd_LW=0.2286
 10
301.000159999999994
 20
91.4984200000000101
 30
0.0
 40
1.9989800000000002
  0
CIRCLE
  8
3
  6
LINETYPE_2
999
CadStd_LW=0.2286
 10
308.000400000000013
 20
91.4984200000000101
 30
0.0
 40
1.9989800000000002
  0
CIRCLE
  8
3
  6
LINETYPE_2
999
CadStd_LW=0.2286
 10
315.000640000000033
 20
91.4984200000000101
 30
0.0
 40
1.9989800000000002
  0
CIRCLE
  8
3
  6
LINETYPE_2
999
CadStd_LW=0.2286
 10
322.000879999999995
 20
91.4984200000000101
 30
0.0
 40
1.9989800000000002
  0
CIRCLE
  8
3
  6
LINETYPE_2
999
CadStd_LW=0.2286
 10
329.001120000000014
 20
91.4984200000000101
 30
0.0
 40
1.9989800000000002
  0
CIRCLE
  8
3
  6
LINETYPE_2
999
CadStd_LW=0.2286
 10
336.001360000000034
 20
91.4984200000000101
 30
0.0
 40
1.9989800000000002
  0
CIRCLE
  8
3
  6
LINETYPE_2
999
CadStd_LW=0.2286
 10
343.001599999999996
 20
91.4984200000000101
 30
0.0
 40
1.9989800000000002
  0
CIRCLE
  8
3
  6
LINETYPE_2
999
CadStd_LW=0.2286
 10
350.001840000000016
 20
91.4984200000000101
 30
0.0
 40
1.9989800000000002
  0
CIRCLE
  8
3
  6
LINETYPE_2
999
CadStd_LW=0.2286
 10
357.002080000000035
 20
91.4984200000000101
 30
0.0
 40
1.9989800000000002
  0
CIRCLE
  8
3
  6
LINETYPE_2
999
CadStd_LW=0.2286
 10
364.002319999999997
 20
91.4984200000000101
 30
0.0
 40
1.9989800000000002
  0
CIRCLE
  8
3
  6
LINETYPE_2
999
CadStd_LW=0.2286
 10
371.002560000000017
 20
91.4984200000000101
 30
0.0
 40
1.9989800000000002
  0
CIRCLE
  8
3
  6
LINETYPE_2
999
CadStd_LW=0.2286
 10
301.000159999999994
 20
84.498180000000005
 30
0.0
 40
1.9989800000000002
  0
CIRCLE
  8
3
  6
LINETYPE_2
999
CadStd_LW=0.2286
 10
308.000400000000013
 20
84.498180000000005
 30
0.0
 40
1.9989800000000002
  0
CIRCLE
  8
3
  6
LINETYPE_2
999
CadStd_LW=0.2286
 10
315.000640000000033
 20
84.498180000000005
 30
0.0
 40
1.9989800000000002
  0
CIRCLE
  8
3
  6
LINETYPE_2
999
CadStd_LW=0.2286
 10
322.000879999999995
 20
84.498180000000005
 30
0.0
 40
1.9989800000000002
  0
CIRCLE
  8
3
  6
LINETYPE_2
999
CadStd_LW=0.2286
 10
329.001120000000014
 20
84.498180000000005
 30
0.0
 40
1.9989800000000002
  0
CIRCLE
  8
3
  6
LINETYPE_2
999
CadStd_LW=0.2286
 10
336.001360000000034
 20
84.498180000000005
 30
0.0
 40
1.9989800000000002
  0
CIRCLE
  8
3
  6
LINETYPE_2
999
CadStd_LW=0.2286
 10
343.001599999999996
 20
84.498180000000005
 30
0.0
 40
1.9989800000000002
  0
CIRCLE
  8
3
  6
LINETYPE_2
999
CadStd_LW=0.2286
 10
350.001840000000016
 20
84.498180000000005
 30
0.0
 40
1.9989800000000002
  0
CIRCLE
  8
3
  6
LINETYPE_2
999
CadStd_LW=0.2286
 10
357.002080000000035
 20
84.498180000000005
 30
0.0
 40
1.9989800000000002
  0
CIRCLE
  8
3
  6
LINETYPE_2
999
CadStd_LW=0.2286
 10
364.002319999999997
 20
84.498180000000005
 30
0.0
 40
1.9989800000000002
  0
CIRCLE
  8
3
  6
LINETYPE_2
999
CadStd_LW=0.2286
 10
371.002560000000017
 20
84.498180000000005
 30
0.0
 40
1.9989800000000002
  0
CIRCLE
  8
3
  6
LINETYPE_2
999
CadStd_LW=0.2286
 10
301.000159999999994
 20
77.4979399999999998
 30
0.0
 40
1.9989800000000002
  0
CIRCLE
  8
3
  6
LINETYPE_2
999
CadStd_LW=0.2286
 10
308.000400000000013
 20
77.4979399999999998
 30
0.0
 40
1.9989800000000002
  0
CIRCLE
  8
3
  6
LINETYPE_2
999
CadStd_LW=0.2286
 10
315.000640000000033
 20
77.4979399999999998
 30
0.0
 40
1.9989800000000002
  0
CIRCLE
  8
3
  6
LINETYPE_2
999
CadStd_LW=0.2286
 10
322.000879999999995
 20
77.4979399999999998
 30
0.0
 40
1.9989800000000002
  0
CIRCLE
  8
3
  6
LINETYPE_2
999
CadStd_LW=0.2286
 10
329.001120000000014
 20
77.4979399999999998
 30
0.0
 40
1.9989800000000002
  0
CIRCLE
  8
3
  6
LINETYPE_2
999
CadStd_LW=0.2286
 10
336.001360000000034
 20
77.4979399999999998
 30
0.0
 40
1.9989800000000002
  0
CIRCLE
  8
3
  6
LINETYPE_2
999
CadStd_LW=0.2286
 10
343.001599999999996
 20
77.4979399999999998
 30
0.0
 40
1.9989800000000002
  0
CIRCLE
  8
3
  6
LINETYPE_2
999
CadStd_LW=0.2286
 10
350.001840000000016
 20
77.4979399999999998
 30
0.0
 40
1.9989800000000002
  0
CIRCLE
  8
3
  6
LINETYPE_2
999
CadStd_LW=0.2286
 10
357.002080000000035
 20
77.4979399999999998
 30
0.0
 40
1.9989800000000002
  0
CIRCLE
  8
3
  6
LINETYPE_2
999
CadStd_LW=0.2286
 10
364.002319999999997
 20
77.4979399999999998
 30
0.0
 40
1.9989800000000002
  0
CIRCLE
  8
3
  6
LINETYPE_2
999
CadStd_LW=0.2286
 10
371.002560000000017
 20
77.4979399999999998
 30
0.0
 40
1.9989800000000002
  0
CIRCLE
  8
3
  6
LINETYPE_2
999
CadStd_LW=0.2286
 10
301.000159999999994
 20
70.4977000000000089
 30
0.0
 40
1.9989800000000002
  0
CIRCLE
  8
3
  6
LINETYPE_2
999
CadStd_LW=0.2286
 10
308.000400000000013
 20
70.4977000000000089
 30
0.0
 40
1.9989800000000002
  0
CIRCLE
  8
3
  6
LINETYPE_2
999
CadStd_LW=0.2286
 10
315.000640000000033
 20
70.4977000000000089
 30
0.0
 40
1.9989800000000002
  0
CIRCLE
  8
3
  6
LINETYPE_2
999
CadStd_LW=0.2286
 10
322.000879999999995
 20
70.4977000000000089
 30
0.0
 40
1.9989800000000002
  0
CIRCLE
  8
3
  6
LINETYPE_2
999
CadStd_LW=0.2286
 10
329.001120000000014
 20
70.4977000000000089
 30
0.0
 40
1.9989800000000002
  0
CIRCLE
  8
3
  6
LINETYPE_2
999
CadStd_LW=0.2286
 10
336.001360000000034
 20
70.4977000000000089
 30
0.0
 40
1.9989800000000002
  0
CIRCLE
  8
3
  6
LINETYPE_2
999
CadStd_LW=0.2286
 10
343.001599999999996
 20
70.4977000000000089
 30
0.0
 40
1.9989800000000002
  0
CIRCLE
  8
3
  6
LINETYPE_2
999
CadStd_LW=0.2286
 10
350.001840000000016
 20
70.4977000000000089
 30
0.0
 40
1.9989800000000002
  0
CIRCLE
  8
3
  6
LINETYPE_2
999
CadStd_LW=0.2286
 10
357.002080000000035
 20
70.4977000000000089
 30
0.0
 40
1.9989800000000002
  0
CIRCLE
  8
3
  6
LINETYPE_2
999
CadStd_LW=0.2286
 10
364.002319999999997
 20
70.4977000000000089
 30
0.0
 40
1.9989800000000002
  0
CIRCLE
  8
3
  6
LINETYPE_2
999
CadStd_LW=0.2286
 10
371.002560000000017
 20
70.4977000000000089
 30
0.0
 40
1.9989800000000002
  0
CIRCLE
  8
3
  6
LINETYPE_2
999
CadStd_LW=0.2286
 10
301.000159999999994
 20
63.4974600000000038
 30
0.0
 40
1.9989800000000002
  0
CIRCLE
  8
3
  6
LINETYPE_2
999
CadStd_LW=0.2286
 10
308.000400000000013
 20
63.4974600000000038
 30
0.0
 40
1.9989800000000002
  0
CIRCLE
  8
3
  6
LINETYPE_2
999
CadStd_LW=0.2286
 10
315.000640000000033
 20
63.4974600000000038
 30
0.0
 40
1.9989800000000002
  0
CIRCLE
  8
3
  6
LINETYPE_2
999
CadStd_LW=0.2286
 10
322.000879999999995
 20
63.4974600000000038
 30
0.0
 40
1.9989800000000002
  0
CIRCLE
  8
3
  6
LINETYPE_2
999
CadStd_LW=0.2286
 10
329.001120000000014
 20
63.4974600000000038
 30
0.0
 40
1.9989800000000002
  0
CIRCLE
  8
3
  6
LINETYPE_2
999
CadStd_LW=0.2286
 10
336.001360000000034
 20
63.4974600000000038
 30
0.0
 40
1.9989800000000002
  0
CIRCLE
  8
3
  6
LINETYPE_2
999
CadStd_LW=0.2286
 10
343.001599999999996
 20
63.4974600000000038
 30
0.0
 40
1.9989800000000002
  0
CIRCLE
  8
3
  6
LINETYPE_2
999
CadStd_LW=0.2286
 10
350.001840000000016
 20
63.4974600000000038
 30
0.0
 40
1.9989800000000002
  0
CIRCLE
  8
3
  6
LINETYPE_2
999
CadStd_LW=0.2286
 10
357.002080000000035
 20
63.4974600000000038
 30
0.0
 40
1.9989800000000002
  0
CIRCLE
  8
3
  6
LINETYPE_2
999
CadStd_LW=0.2286
 10
364.002319999999997
 20
63.4974600000000038
 30
0.0
 40
1.9989800000000002
  0
CIRCLE
  8
3
  6
LINETYPE_2
999
CadStd_LW=0.2286
 10
371.002560000000017
 20
63.4974600000000038
 30
0.0
 40
1.9989800000000002
  0
CIRCLE
  8
3
  6
LINETYPE_2
999
CadStd_LW=0.2286
 10
301.000159999999994
 20
56.4972200000000058
 30
0.0
 40
1.9989800000000002
  0
CIRCLE
  8
3
  6
LINETYPE_2
999
CadStd_LW=0.2286
 10
308.000400000000013
 20
56.4972200000000058
 30
0.0
 40
1.9989800000000002
  0
CIRCLE
  8
3
  6
LINETYPE_2
999
CadStd_LW=0.2286
 10
315.000640000000033
 20
56.4972200000000058
 30
0.0
 40
1.9989800000000002
  0
CIRCLE
  8
3
  6
LINETYPE_2
999
CadStd_LW=0.2286
 10
322.000879999999995
 20
56.4972200000000058
 30
0.0
 40
1.9989800000000002
  0
CIRCLE
  8
3
  6
LINETYPE_2
999
CadStd_LW=0.2286
 10
329.001120000000014
 20
56.4972200000000058
 30
0.0
 40
1.9989800000000002
  0
CIRCLE
  8
3
  6
LINETYPE_2
999
CadStd_LW=0.2286
 10
336.001360000000034
 20
56.4972200000000058
 30
0.0
 40
1.9989800000000002
  0
CIRCLE
  8
3
  6
LINETYPE_2
999
CadStd_LW=0.2286
 10
343.001599999999996
 20
56.4972200000000058
 30
0.0
 40
1.9989800000000002
  0
CIRCLE
  8
3
  6
LINETYPE_2
999
CadStd_LW=0.2286
 10
350.001840000000016
 20
56.4972200000000058
 30
0.0
 40
1.9989800000000002
  0
CIRCLE
  8
3
  6
LINETYPE_2
999
CadStd_LW=0.2286
 10
357.002080000000035
 20
56.4972200000000058
 30
0.0
 40
1.9989800000000002
  0
CIRCLE
  8
3
  6
LINETYPE_2
999
CadStd_LW=0.2286
 10
364.002319999999997
 20
56.4972200000000058
 30
0.0
 40
1.9989800000000002
  0
CIRCLE
  8
3
  6
LINETYPE_2
999
CadStd_LW=0.2286
 10
371.002560000000017
 20
56.4972200000000058
 30
0.0
 40
1.9989800000000002
  0
CIRCLE
  8
3
  6
LINETYPE_2
999
CadStd_LW=0.2286
 10
301.000159999999994
 20
49.4969800000000006
 30
0.0
 40
1.9989800000000002
  0
CIRCLE
  8
3
  6
LINETYPE_2
999
CadStd_LW=0.2286
 10
308.000400000000013
 20
49.4969800000000006
 30
0.0
 40
1.9989800000000002
  0
CIRCLE
  8
3
  6
LINETYPE_2
999
CadStd_LW=0.2286
 10
315.000640000000033
 20
49.4969800000000006
 30
0.0
 40
1.9989800000000002
  0
CIRCLE
  8
3
  6
LINETYPE_2
999
CadStd_LW=0.2286
 10
322.000879999999995
 20
49.4969800000000006
 30
0.0
 40
1.9989800000000002
  0
CIRCLE
  8
3
  6
LINETYPE_2
999
CadStd_LW=0.2286
 10
329.001120000000014
 20
49.4969800000000006
 30
0.0
 40
1.9989800000000002
  0
CIRCLE
  8
3
  6
LINETYPE_2
999
CadStd_LW=0.2286
 10
336.001360000000034
 20
49.4969800000000006
 30
0.0
 40
1.9989800000000002
  0
CIRCLE
  8
3
  6
LINETYPE_2
999
CadStd_LW=0.2286
 10
343.001599999999996
 20
49.4969800000000006
 30
0.0
 40
1.9989800000000002
  0
CIRCLE
  8
3
  6
LINETYPE_2
999
CadStd_LW=0.2286
 10
350.001840000000016
 20
49.4969800000000006
 30
0.0
 40
1.9989800000000002
  0
CIRCLE
  8
3
  6
LINETYPE_2
999
CadStd_LW=0.2286
 10
357.002080000000035
 20
49.4969800000000006
 30
0.0
 40
1.9989800000000002
  0
CIRCLE
  8
3
  6
LINETYPE_2
999
CadStd_LW=0.2286
 10
364.002319999999997
 20
49.4969800000000006
 30
0.0
 40
1.9989800000000002
  0
CIRCLE
  8
3
  6
LINETYPE_2
999
CadStd_LW=0.2286
 10
371.002560000000017
 20
49.4969800000000006
 30
0.0
 40
1.9989800000000002
  0
CIRCLE
  8
3
  6
LINETYPE_2
999
CadStd_LW=0.2286
 10
378.002800000000036
 20
119.4993800000000022
 30
0.0
 40
1.9989800000000002
  0
CIRCLE
  8
3
  6
LINETYPE_2
999
CadStd_LW=0.2286
 10
385.003039999999999
 20
119.4993800000000022
 30
0.0
 40
1.9989800000000002
  0
CIRCLE
  8
3
  6
LINETYPE_2
999
CadStd_LW=0.2286
 10
392.003280000000018
 20
119.4993800000000022
 30
0.0
 40
1.9989800000000002
  0
CIRCLE
  8
3
  6
LINETYPE_2
999
CadStd_LW=0.2286
 10
399.003520000000037
 20
119.4993800000000022
 30
0.0
 40
1.9989800000000002
  0
CIRCLE
  8
3
  6
LINETYPE_2
999
CadStd_LW=0.2286
 10
378.002800000000036
 20
112.4991400000000112
 30
0.0
 40
1.9989800000000002
  0
CIRCLE
  8
3
  6
LINETYPE_2
999
CadStd_LW=0.2286
 10
385.003039999999999
 20
112.4991400000000112
 30
0.0
 40
1.9989800000000002
  0
CIRCLE
  8
3
  6
LINETYPE_2
999
CadStd_LW=0.2286
 10
392.003280000000018
 20
112.4991400000000112
 30
0.0
 40
1.9989800000000002
  0
CIRCLE
  8
3
  6
LINETYPE_2
999
CadStd_LW=0.2286
 10
399.003520000000037
 20
112.4991400000000112
 30
0.0
 40
1.9989800000000002
  0
CIRCLE
  8
3
  6
LINETYPE_2
999
CadStd_LW=0.2286
 10
378.002800000000036
 20
105.4989000000000061
 30
0.0
 40
1.9989800000000002
  0
CIRCLE
  8
3
  6
LINETYPE_2
999
CadStd_LW=0.2286
 10
385.003039999999999
 20
105.4989000000000061
 30
0.0
 40
1.9989800000000002
  0
CIRCLE
  8
3
  6
LINETYPE_2
999
CadStd_LW=0.2286
 10
392.003280000000018
 20
105.4989000000000061
 30
0.0
 40
1.9989800000000002
  0
CIRCLE
  8
3
  6
LINETYPE_2
999
CadStd_LW=0.2286
 10
399.003520000000037
 20
105.4989000000000061
 30
0.0
 40
1.9989800000000002
  0
CIRCLE
  8
3
  6
LINETYPE_2
999
CadStd_LW=0.2286
 10
378.002800000000036
 20
98.498660000000001
 30
0.0
 40
1.9989800000000002
  0
CIRCLE
  8
3
  6
LINETYPE_2
999
CadStd_LW=0.2286
 10
385.003039999999999
 20
98.498660000000001
 30
0.0
 40
1.9989800000000002
  0
CIRCLE
  8
3
  6
LINETYPE_2
999
CadStd_LW=0.2286
 10
392.003280000000018
 20
98.498660000000001
 30
0.0
 40
1.9989800000000002
  0
CIRCLE
  8
3
  6
LINETYPE_2
999
CadStd_LW=0.2286
 10
399.003520000000037
 20
98.498660000000001
 30
0.0
 40
1.9989800000000002
  0
CIRCLE
  8
3
  6
LINETYPE_2
999
CadStd_LW=0.2286
 10
378.002800000000036
 20
91.4984200000000101
 30
0.0
 40
1.9989800000000002
  0
CIRCLE
  8
3
  6
LINETYPE_2
999
CadStd_LW=0.2286
 10
385.003039999999999
 20
91.4984200000000101
 30
0.0
 40
1.9989800000000002
  0
CIRCLE
  8
3
  6
LINETYPE_2
999
CadStd_LW=0.2286
 10
392.003280000000018
 20
91.4984200000000101
 30
0.0
 40
1.9989800000000002
  0
CIRCLE
  8
3
  6
LINETYPE_2
999
CadStd_LW=0.2286
 10
399.003520000000037
 20
91.4984200000000101
 30
0.0
 40
1.9989800000000002
  0
CIRCLE
  8
3
  6
LINETYPE_2
999
CadStd_LW=0.2286
 10
378.002800000000036
 20
84.498180000000005
 30
0.0
 40
1.9989800000000002
  0
CIRCLE
  8
3
  6
LINETYPE_2
999
CadStd_LW=0.2286
 10
385.003039999999999
 20
84.498180000000005
 30
0.0
 40
1.9989800000000002
  0
CIRCLE
  8
3
  6
LINETYPE_2
999
CadStd_LW=0.2286
 10
392.003280000000018
 20
84.498180000000005
 30
0.0
 40
1.9989800000000002
  0
CIRCLE
  8
3
  6
LINETYPE_2
999
CadStd_LW=0.2286
 10
399.003520000000037
 20
84.498180000000005
 30
0.0
 40
1.9989800000000002
  0
CIRCLE
  8
3
  6
LINETYPE_2
999
CadStd_LW=0.2286
 10
378.002800000000036
 20
77.4979399999999998
 30
0.0
 40
1.9989800000000002
  0
CIRCLE
  8
3
  6
LINETYPE_2
999
CadStd_LW=0.2286
 10
385.003039999999999
 20
77.4979399999999998
 30
0.0
 40
1.9989800000000002
  0
CIRCLE
  8
3
  6
LINETYPE_2
999
CadStd_LW=0.2286
 10
392.003280000000018
 20
77.4979399999999998
 30
0.0
 40
1.9989800000000002
  0
CIRCLE
  8
3
  6
LINETYPE_2
999
CadStd_LW=0.2286
 10
399.003520000000037
 20
77.4979399999999998
 30
0.0
 40
1.9989800000000002
  0
CIRCLE
  8
3
  6
LINETYPE_2
999
CadStd_LW=0.2286
 10
378.002800000000036
 20
70.4977000000000089
 30
0.0
 40
1.9989800000000002
  0
CIRCLE
  8
3
  6
LINETYPE_2
999
CadStd_LW=0.2286
 10
385.003039999999999
 20
70.4977000000000089
 30
0.0
 40
1.9989800000000002
  0
CIRCLE
  8
3
  6
LINETYPE_2
999
CadStd_LW=0.2286
 10
392.003280000000018
 20
70.4977000000000089
 30
0.0
 40
1.9989800000000002
  0
CIRCLE
  8
3
  6
LINETYPE_2
999
CadStd_LW=0.2286
 10
399.003520000000037
 20
70.4977000000000089
 30
0.0
 40
1.9989800000000002
  0
CIRCLE
  8
3
  6
LINETYPE_2
999
CadStd_LW=0.2286
 10
378.002800000000036
 20
63.4974600000000038
 30
0.0
 40
1.9989800000000002
  0
CIRCLE
  8
3
  6
LINETYPE_2
999
CadStd_LW=0.2286
 10
385.003039999999999
 20
63.4974600000000038
 30
0.0
 40
1.9989800000000002
  0
CIRCLE
  8
3
  6
LINETYPE_2
999
CadStd_LW=0.2286
 10
392.003280000000018
 20
63.4974600000000038
 30
0.0
 40
1.9989800000000002
  0
CIRCLE
  8
3
  6
LINETYPE_2
999
CadStd_LW=0.2286
 10
399.003520000000037
 20
63.4974600000000038
 30
0.0
 40
1.9989800000000002
  0
CIRCLE
  8
3
  6
LINETYPE_2
999
CadStd_LW=0.2286
 10
378.002800000000036
 20
56.4972200000000058
 30
0.0
 40
1.9989800000000002
  0
CIRCLE
  8
3
  6
LINETYPE_2
999
CadStd_LW=0.2286
 10
385.003039999999999
 20
56.4972200000000058
 30
0.0
 40
1.9989800000000002
  0
CIRCLE
  8
3
  6
LINETYPE_2
999
CadStd_LW=0.2286
 10
392.003280000000018
 20
56.4972200000000058
 30
0.0
 40
1.9989800000000002
  0
CIRCLE
  8
3
  6
LINETYPE_2
999
CadStd_LW=0.2286
 10
399.003520000000037
 20
56.4972200000000058
 30
0.0
 40
1.9989800000000002
  0
CIRCLE
  8
3
  6
LINETYPE_2
999
CadStd_LW=0.2286
 10
378.002800000000036
 20
49.4969800000000006
 30
0.0
 40
1.9989800000000002
  0
CIRCLE
  8
3
  6
LINETYPE_2
999
CadStd_LW=0.2286
 10
385.003039999999999
 20
49.4969800000000006
 30
0.0
 40
1.9989800000000002
  0
CIRCLE
  8
3
  6
LINETYPE_2
999
CadStd_LW=0.2286
 10
392.003280000000018
 20
49.4969800000000006
 30
0.0
 40
1.9989800000000002
  0
CIRCLE
  8
3
  6
LINETYPE_2
999
CadStd_LW=0.2286
 10
399.003520000000037
 20
49.4969800000000006
 30
0.0
 40
1.9989800000000002
  0
CIRCLE
  8
3
  6
LINETYPE_2
999
CadStd_LW=0.2286
 10
301.000159999999994
 20
42.4967400000000026
 30
0.0
 40
1.9989800000000002
  0
CIRCLE
  8
3
  6
LINETYPE_2
999
CadStd_LW=0.2286
 10
308.000400000000013
 20
42.4967400000000026
 30
0.0
 40
1.9989800000000002
  0
CIRCLE
  8
3
  6
LINETYPE_2
999
CadStd_LW=0.2286
 10
315.000640000000033
 20
42.4967400000000026
 30
0.0
 40
1.9989800000000002
  0
CIRCLE
  8
3
  6
LINETYPE_2
999
CadStd_LW=0.2286
 10
322.000879999999995
 20
42.4967400000000026
 30
0.0
 40
1.9989800000000002
  0
CIRCLE
  8
3
  6
LINETYPE_2
999
CadStd_LW=0.2286
 10
329.001120000000014
 20
42.4967400000000026
 30
0.0
 40
1.9989800000000002
  0
CIRCLE
  8
3
  6
LINETYPE_2
999
CadStd_LW=0.2286
 10
336.001360000000034
 20
42.4967400000000026
 30
0.0
 40
1.9989800000000002
  0
CIRCLE
  8
3
  6
LINETYPE_2
999
CadStd_LW=0.2286
 10
343.001599999999996
 20
42.4967400000000026
 30
0.0
 40
1.9989800000000002
  0
CIRCLE
  8
3
  6
LINETYPE_2
999
CadStd_LW=0.2286
 10
350.001840000000016
 20
42.4967400000000026
 30
0.0
 40
1.9989800000000002
  0
CIRCLE
  8
3
  6
LINETYPE_2
999
CadStd_LW=0.2286
 10
357.002080000000035
 20
42.4967400000000026
 30
0.0
 40
1.9989800000000002
  0
CIRCLE
  8
3
  6
LINETYPE_2
999
CadStd_LW=0.2286
 10
364.002319999999997
 20
42.4967400000000026
 30
0.0
 40
1.9989800000000002
  0
CIRCLE
  8
3
  6
LINETYPE_2
999
CadStd_LW=0.2286
 10
371.002560000000017
 20
42.4967400000000026
 30
0.0
 40
1.9989800000000002
  0
CIRCLE
  8
3
  6
LINETYPE_2
999
CadStd_LW=0.2286
 10
301.000159999999994
 20
35.4965000000000046
 30
0.0
 40
1.9989800000000002
  0
CIRCLE
  8
3
  6
LINETYPE_2
999
CadStd_LW=0.2286
 10
308.000400000000013
 20
35.4965000000000046
 30
0.0
 40
1.9989800000000002
  0
CIRCLE
  8
3
  6
LINETYPE_2
999
CadStd_LW=0.2286
 10
315.000640000000033
 20
35.4965000000000046
 30
0.0
 40
1.9989800000000002
  0
CIRCLE
  8
3
  6
LINETYPE_2
999
CadStd_LW=0.2286
 10
322.000879999999995
 20
35.4965000000000046
 30
0.0
 40
1.9989800000000002
  0
CIRCLE
  8
3
  6
LINETYPE_2
999
CadStd_LW=0.2286
 10
329.001120000000014
 20
35.4965000000000046
 30
0.0
 40
1.9989800000000002
  0
CIRCLE
  8
3
  6
LINETYPE_2
999
CadStd_LW=0.2286
 10
336.001360000000034
 20
35.4965000000000046
 30
0.0
 40
1.9989800000000002
  0
CIRCLE
  8
3
  6
LINETYPE_2
999
CadStd_LW=0.2286
 10
343.001599999999996
 20
35.4965000000000046
 30
0.0
 40
1.9989800000000002
  0
CIRCLE
  8
3
  6
LINETYPE_2
999
CadStd_LW=0.2286
 10
350.001840000000016
 20
35.4965000000000046
 30
0.0
 40
1.9989800000000002
  0
CIRCLE
  8
3
  6
LINETYPE_2
999
CadStd_LW=0.2286
 10
357.002080000000035
 20
35.4965000000000046
 30
0.0
 40
1.9989800000000002
  0
CIRCLE
  8
3
  6
LINETYPE_2
999
CadStd_LW=0.2286
 10
364.002319999999997
 20
35.4965000000000046
 30
0.0
 40
1.9989800000000002
  0
CIRCLE
  8
3
  6
LINETYPE_2
999
CadStd_LW=0.2286
 10
371.002560000000017
 20
35.4965000000000046
 30
0.0
 40
1.9989800000000002
  0
CIRCLE
  8
3
  6
LINETYPE_2
999
CadStd_LW=0.2286
 10
301.000159999999994
 20
28.496260000000003
 30
0.0
 40
1.9989800000000002
  0
CIRCLE
  8
3
  6
LINETYPE_2
999
CadStd_LW=0.2286
 10
308.000400000000013
 20
28.496260000000003
 30
0.0
 40
1.9989800000000002
  0
CIRCLE
  8
3
  6
LINETYPE_2
999
CadStd_LW=0.2286
 10
315.000640000000033
 20
28.496260000000003
 30
0.0
 40
1.9989800000000002
  0
CIRCLE
  8
3
  6
LINETYPE_2
999
CadStd_LW=0.2286
 10
322.000879999999995
 20
28.496260000000003
 30
0.0
 40
1.9989800000000002
  0
CIRCLE
  8
3
  6
LINETYPE_2
999
CadStd_LW=0.2286
 10
329.001120000000014
 20
28.496260000000003
 30
0.0
 40
1.9989800000000002
  0
CIRCLE
  8
3
  6
LINETYPE_2
999
CadStd_LW=0.2286
 10
336.001360000000034
 20
28.496260000000003
 30
0.0
 40
1.9989800000000002
  0
CIRCLE
  8
3
  6
LINETYPE_2
999
CadStd_LW=0.2286
 10
343.001599999999996
 20
28.496260000000003
 30
0.0
 40
1.9989800000000002
  0
CIRCLE
  8
3
  6
LINETYPE_2
999
CadStd_LW=0.2286
 10
350.001840000000016
 20
28.496260000000003
 30
0.0
 40
1.9989800000000002
  0
CIRCLE
  8
3
  6
LINETYPE_2
999
CadStd_LW=0.2286
 10
357.002080000000035
 20
28.496260000000003
 30
0.0
 40
1.9989800000000002
  0
CIRCLE
  8
3
  6
LINETYPE_2
999
CadStd_LW=0.2286
 10
364.002319999999997
 20
28.496260000000003
 30
0.0
 40
1.9989800000000002
  0
CIRCLE
  8
3
  6
LINETYPE_2
999
CadStd_LW=0.2286
 10
371.002560000000017
 20
28.496260000000003
 30
0.0
 40
1.9989800000000002
  0
CIRCLE
  8
3
  6
LINETYPE_2
999
CadStd_LW=0.2286
 10
301.000159999999994
 20
21.4960200000000015
 30
0.0
 40
1.9989800000000002
  0
CIRCLE
  8
3
  6
LINETYPE_2
999
CadStd_LW=0.2286
 10
308.000400000000013
 20
21.4960200000000015
 30
0.0
 40
1.9989800000000002
  0
CIRCLE
  8
3
  6
LINETYPE_2
999
CadStd_LW=0.2286
 10
315.000640000000033
 20
21.4960200000000015
 30
0.0
 40
1.9989800000000002
  0
CIRCLE
  8
3
  6
LINETYPE_2
999
CadStd_LW=0.2286
 10
322.000879999999995
 20
21.4960200000000015
 30
0.0
 40
1.9989800000000002
  0
CIRCLE
  8
3
  6
LINETYPE_2
999
CadStd_LW=0.2286
 10
329.001120000000014
 20
21.4960200000000015
 30
0.0
 40
1.9989800000000002
  0
CIRCLE
  8
3
  6
LINETYPE_2
999
CadStd_LW=0.2286
 10
336.001360000000034
 20
21.4960200000000015
 30
0.0
 40
1.9989800000000002
  0
CIRCLE
  8
3
  6
LINETYPE_2
999
CadStd_LW=0.2286
 10
343.001599999999996
 20
21.4960200000000015
 30
0.0
 40
1.9989800000000002
  0
CIRCLE
  8
3
  6
LINETYPE_2
999
CadStd_LW=0.2286
 10
350.001840000000016
 20
21.4960200000000015
 30
0.0
 40
1.9989800000000002
  0
CIRCLE
  8
3
  6
LINETYPE_2
999
CadStd_LW=0.2286
 10
357.002080000000035
 20
21.4960200000000015
 30
0.0
 40
1.9989800000000002
  0
CIRCLE
  8
3
  6
LINETYPE_2
999
CadStd_LW=0.2286
 10
364.002319999999997
 20
21.4960200000000015
 30
0.0
 40
1.9989800000000002
  0
CIRCLE
  8
3
  6
LINETYPE_2
999
CadStd_LW=0.2286
 10
371.002560000000017
 20
21.4960200000000015
 30
0.0
 40
1.9989800000000002
  0
CIRCLE
  8
3
  6
LINETYPE_2
999
CadStd_LW=0.2286
 10
378.002800000000036
 20
42.4967400000000026
 30
0.0
 40
1.9989800000000002
  0
CIRCLE
  8
3
  6
LINETYPE_2
999
CadStd_LW=0.2286
 10
385.003039999999999
 20
42.4967400000000026
 30
0.0
 40
1.9989800000000002
  0
CIRCLE
  8
3
  6
LINETYPE_2
999
CadStd_LW=0.2286
 10
392.003280000000018
 20
42.4967400000000026
 30
0.0
 40
1.9989800000000002
  0
CIRCLE
  8
3
  6
LINETYPE_2
999
CadStd_LW=0.2286
 10
399.003520000000037
 20
42.4967400000000026
 30
0.0
 40
1.9989800000000002
  0
CIRCLE
  8
3
  6
LINETYPE_2
999
CadStd_LW=0.2286
 10
378.002800000000036
 20
35.4965000000000046
 30
0.0
 40
1.9989800000000002
  0
CIRCLE
  8
3
  6
LINETYPE_2
999
CadStd_LW=0.2286
 10
385.003039999999999
 20
35.4965000000000046
 30
0.0
 40
1.9989800000000002
  0
CIRCLE
  8
3
  6
LINETYPE_2
999
CadStd_LW=0.2286
 10
392.003280000000018
 20
35.4965000000000046
 30
0.0
 40
1.9989800000000002
  0
CIRCLE
  8
3
  6
LINETYPE_2
999
CadStd_LW=0.2286
 10
399.003520000000037
 20
35.4965000000000046
 30
0.0
 40
1.9989800000000002
  0
CIRCLE
  8
3
  6
LINETYPE_2
999
CadStd_LW=0.2286
 10
378.002800000000036
 20
28.496260000000003
 30
0.0
 40
1.9989800000000002
  0
CIRCLE
  8
3
  6
LINETYPE_2
999
CadStd_LW=0.2286
 10
385.003039999999999
 20
28.496260000000003
 30
0.0
 40
1.9989800000000002
  0
CIRCLE
  8
3
  6
LINETYPE_2
999
CadStd_LW=0.2286
 10
392.003280000000018
 20
28.496260000000003
 30
0.0
 40
1.9989800000000002
  0
CIRCLE
  8
3
  6
LINETYPE_2
999
CadStd_LW=0.2286
 10
399.003520000000037
 20
28.496260000000003
 30
0.0
 40
1.9989800000000002
  0
CIRCLE
  8
3
  6
LINETYPE_2
999
CadStd_LW=0.2286
 10
378.002800000000036
 20
21.4960200000000015
 30
0.0
 40
1.9989800000000002
  0
CIRCLE
  8
3
  6
LINETYPE_2
999
CadStd_LW=0.2286
 10
385.003039999999999
 20
21.4960200000000015
 30
0.0
 40
1.9989800000000002
  0
CIRCLE
  8
3
  6
LINETYPE_2
999
CadStd_LW=0.2286
 10
392.003280000000018
 20
21.4960200000000015
 30
0.0
 40
1.9989800000000002
  0
CIRCLE
  8
3
  6
LINETYPE_2
999
CadStd_LW=0.2286
 10
399.003520000000037
 20
21.4960200000000015
 30
0.0
 40
1.9989800000000002
  0
CIRCLE
  8
3
  6
LINETYPE_2
999
CadStd_LW=0.2286
 10
21.0007200000000012
 20
211.996020000000016
 30
0.0
 40
1.9989800000000002
  0
CIRCLE
  8
3
  6
LINETYPE_2
999
CadStd_LW=0.2286
 10
28.0009600000000027
 20
211.996020000000016
 30
0.0
 40
1.9989800000000002
  0
CIRCLE
  8
3
  6
LINETYPE_2
999
CadStd_LW=0.2286
 10
35.0012000000000043
 20
211.996020000000016
 30
0.0
 40
1.9989800000000002
  0
CIRCLE
  8
3
  6
LINETYPE_2
999
CadStd_LW=0.2286
 10
42.0014400000000023
 20
211.996020000000016
 30
0.0
 40
1.9989800000000002
  0
CIRCLE
  8
3
  6
LINETYPE_2
999
CadStd_LW=0.2286
 10
49.0016800000000004
 20
211.996020000000016
 30
0.0
 40
1.9989800000000002
  0
CIRCLE
  8
3
  6
LINETYPE_2
999
CadStd_LW=0.2286
 10
56.0019200000000055
 20
211.996020000000016
 30
0.0
 40
1.9989800000000002
  0
CIRCLE
  8
3
  6
LINETYPE_2
999
CadStd_LW=0.2286
 10
63.0021600000000035
 20
211.996020000000016
 30
0.0
 40
1.9989800000000002
  0
CIRCLE
  8
3
  6
LINETYPE_2
999
CadStd_LW=0.2286
 10
70.0024000000000086
 20
211.996020000000016
 30
0.0
 40
1.9989800000000002
  0
CIRCLE
  8
3
  6
LINETYPE_2
999
CadStd_LW=0.2286
 10
77.0026399999999995
 20
211.996020000000016
 30
0.0
 40
1.9989800000000002
  0
CIRCLE
  8
3
  6
LINETYPE_2
999
CadStd_LW=0.2286
 10
84.0028800000000047
 20
211.996020000000016
 30
0.0
 40
1.9989800000000002
  0
CIRCLE
  8
3
  6
LINETYPE_2
999
CadStd_LW=0.2286
 10
91.0031200000000098
 20
211.996020000000016
 30
0.0
 40
1.9989800000000002
  0
CIRCLE
  8
3
  6
LINETYPE_2
999
CadStd_LW=0.2286
 10
21.0007200000000012
 20
204.995780000000025
 30
0.0
 40
1.9989800000000002
  0
CIRCLE
  8
3
  6
LINETYPE_2
999
CadStd_LW=0.2286
 10
28.0009600000000027
 20
204.995780000000025
 30
0.0
 40
1.9989800000000002
  0
CIRCLE
  8
3
  6
LINETYPE_2
999
CadStd_LW=0.2286
 10
35.0012000000000043
 20
204.995780000000025
 30
0.0
 40
1.9989800000000002
  0
CIRCLE
  8
3
  6
LINETYPE_2
999
CadStd_LW=0.2286
 10
42.0014400000000023
 20
204.995780000000025
 30
0.0
 40
1.9989800000000002
  0
CIRCLE
  8
3
  6
LINETYPE_2
999
CadStd_LW=0.2286
 10
49.0016800000000004
 20
204.995780000000025
 30
0.0
 40
1.9989800000000002
  0
CIRCLE
  8
3
  6
LINETYPE_2
999
CadStd_LW=0.2286
 10
56.0019200000000055
 20
204.995780000000025
 30
0.0
 40
1.9989800000000002
  0
CIRCLE
  8
3
  6
LINETYPE_2
999
CadStd_LW=0.2286
 10
63.0021600000000035
 20
204.995780000000025
 30
0.0
 40
1.9989800000000002
  0
CIRCLE
  8
3
  6
LINETYPE_2
999
CadStd_LW=0.2286
 10
70.0024000000000086
 20
204.995780000000025
 30
0.0
 40
1.9989800000000002
  0
CIRCLE
  8
3
  6
LINETYPE_2
999
CadStd_LW=0.2286
 10
77.0026399999999995
 20
204.995780000000025
 30
0.0
 40
1.9989800000000002
  0
CIRCLE
  8
3
  6
LINETYPE_2
999
CadStd_LW=0.2286
 10
84.0028800000000047
 20
204.995780000000025
 30
0.0
 40
1.9989800000000002
  0
CIRCLE
  8
3
  6
LINETYPE_2
999
CadStd_LW=0.2286
 10
91.0031200000000098
 20
204.995780000000025
 30
0.0
 40
1.9989800000000002
  0
CIRCLE
  8
3
  6
LINETYPE_2
999
CadStd_LW=0.2286
 10
98.0033600000000007
 20
211.996020000000016
 30
0.0
 40
1.9989800000000002
  0
CIRCLE
  8
3
  6
LINETYPE_2
999
CadStd_LW=0.2286
 10
105.0036000000000058
 20
211.996020000000016
 30
0.0
 40
1.9989800000000002
  0
CIRCLE
  8
3
  6
LINETYPE_2
999
CadStd_LW=0.2286
 10
112.0038400000000109
 20
211.996020000000016
 30
0.0
 40
1.9989800000000002
  0
CIRCLE
  8
3
  6
LINETYPE_2
999
CadStd_LW=0.2286
 10
119.0040800000000019
 20
211.996020000000016
 30
0.0
 40
1.9989800000000002
  0
CIRCLE
  8
3
  6
LINETYPE_2
999
CadStd_LW=0.2286
 10
98.0033600000000007
 20
204.995780000000025
 30
0.0
 40
1.9989800000000002
  0
CIRCLE
  8
3
  6
LINETYPE_2
999
CadStd_LW=0.2286
 10
105.0036000000000058
 20
204.995780000000025
 30
0.0
 40
1.9989800000000002
  0
CIRCLE
  8
3
  6
LINETYPE_2
999
CadStd_LW=0.2286
 10
112.0038400000000109
 20
204.995780000000025
 30
0.0
 40
1.9989800000000002
  0
CIRCLE
  8
3
  6
LINETYPE_2
999
CadStd_LW=0.2286
 10
119.0040800000000019
 20
204.995780000000025
 30
0.0
 40
1.9989800000000002
  0
POLYLINE
  8
3
  6
LINETYPE_2
 66
     1
 10
0.0
 20
0.0
 30
0.0
  0
VERTEX
  8
3
 10
409.00096000000002
 20
158.506160000000023
 30
0.0
  0
VERTEX
  8
3
 10
409.00096000000002
 20
178.50612000000001
 30
0.0
  0
SEQEND
  0
POLYLINE
  8
3
  6
LINETYPE_2
 66
     1
 10
0.0
 20
0.0
 30
0.0
  0
VERTEX
  8
3
 10
409.00096000000002
 20
178.50612000000001
 30
0.0
  0
VERTEX
  8
3
 10
412.000700000000052
 20
178.50612000000001
 30
0.0
  0
SEQEND
  0
POLYLINE
  8
3
  6
LINETYPE_2
 66
     1
 10
0.0
 20
0.0
 30
0.0
  0
VERTEX
  8
3
 10
412.000700000000052
 20
178.50612000000001
 30
0.0
  0
VERTEX
  8
3
 10
412.000700000000052
 20
158.506160000000023
 30
0.0
  0
SEQEND
  0
POLYLINE
  8
3
  6
LINETYPE_2
 66
     1
 10
0.0
 20
0.0
 30
0.0
  0
VERTEX
  8
3
 10
278.000460000000032
 20
158.506160000000023
 30
0.0
  0
VERTEX
  8
3
 10
278.000460000000032
 20
178.50612000000001
 30
0.0
  0
SEQEND
  0
POLYLINE
  8
3
  6
LINETYPE_2
 66
     1
 10
0.0
 20
0.0
 30
0.0
  0
VERTEX
  8
3
 10
278.000460000000032
 20
178.50612000000001
 30
0.0
  0
VERTEX
  8
3
 10
281.000200000000007
 20
178.50612000000001
 30
0.0
  0
SEQEND
  0
POLYLINE
  8
3
  6
LINETYPE_2
 66
     1
 10
0.0
 20
0.0
 30
0.0
  0
VERTEX
  8
3
 10
281.000200000000007
 20
178.50612000000001
 30
0.0
  0
VERTEX
  8
3
 10
281.000200000000007
 20
158.506160000000023
 30
0.0
  0
SEQEND
  0
POLYLINE
  8
3
  6
LINETYPE_2
 66
     1
 10
0.0
 20
0.0
 30
0.0
  0
VERTEX
  8
3
 10
281.000200000000007
 20
158.503620000000012
 30
0.0
  0
VERTEX
  8
3
 10
278.000460000000032
 20
158.503620000000012
 30
0.0
  0
SEQEND
  0
POLYLINE
  8
3
  6
LINETYPE_2
 66
     1
 10
0.0
 20
0.0
 30
0.0
  0
VERTEX
  8
3
 10
412.000700000000052
 20
158.503620000000012
 30
0.0
  0
VERTEX
  8
3
 10
409.00096000000002
 20
158.503620000000012
 30
0.0
  0
SEQEND
  0
POLYLINE
  8
2
  6
LINETYPE_2
 66
     1
 10
0.0
 20
0.0
 30
0.0
  0
VERTEX
  8
2
 10
355.000560000000007
 20
143.502380000000016
 30
0.0
  0
VERTEX
  8
2
 10
355.000560000000007
 20
140.502640000000014
 30
0.0
  0
SEQEND
  0
POLYLINE
  8
2
  6
LINETYPE_2
 66
     1
 10
0.0
 20
0.0
 30
0.0
  0
VERTEX
  8
2
 10
335.00060000000002
 20
140.502640000000014
 30
0.0
  0
VERTEX
  8
2
 10
335.00060000000002
 20
143.502380000000016
 30
0.0
  0
SEQEND
  0
POLYLINE
  8
2
  6
LINETYPE_2
 66
     1
 10
0.0
 20
0.0
 30
0.0
  0
VERTEX
  8
2
 10
402.501100000000008
 20
143.502380000000016
 30
0.0
  0
VERTEX
  8
2
 10
402.501100000000008
 20
140.502640000000014
 30
0.0
  0
SEQEND
  0
POLYLINE
  8
2
  6
LINETYPE_2
 66
     1
 10
0.0
 20
0.0
 30
0.0
  0
VERTEX
  8
2
 10
382.501140000000021
 20
140.502640000000014
 30
0.0
  0
VERTEX
  8
2
 10
382.501140000000021
 20
143.502380000000016
 30
0.0
  0
SEQEND
  0
POLYLINE
  8
2
  6
LINETYPE_2
 66
     1
 10
0.0
 20
0.0
 30
0.0
  0
VERTEX
  8
2
 10
307.500020000000006
 20
143.502380000000016
 30
0.0
  0
VERTEX
  8
2
 10
307.500020000000006
 20
140.502640000000014
 30
0.0
  0
SEQEND
  0
POLYLINE
  8
2
  6
LINETYPE_2
 66
     1
 10
0.0
 20
0.0
 30
0.0
  0
VERTEX
  8
2
 10
287.500060000000019
 20
140.502640000000014
 30
0.0
  0
VERTEX
  8
2
 10
287.500060000000019
 20
143.502380000000016
 30
0.0
  0
SEQEND
  0
POLYLINE
  8
2
  6
LINETYPE_2
 66
     1
 10
0.0
 20
0.0
 30
0.0
  0
VERTEX
  8
2
 10
335.00060000000002
 20
143.502380000000016
 30
0.0
  0
VERTEX
  8
2
 10
307.500020000000006
 20
143.502380000000016
 30
0.0
  0
SEQEND
  0
POLYLINE
  8
2
  6
LINETYPE_2
 66
     1
 10
0.0
 20
0.0
 30
0.0
  0
VERTEX
  8
2
 10
382.501140000000021
 20
143.502380000000016
 30
0.0
  0
VERTEX
  8
2
 10
355.000560000000007
 20
143.502380000000016
 30
0.0
  0
SEQEND
  0
POLYLINE
  8
2
  6
LINETYPE_2
 66
     1
 10
0.0
 20
0.0
 30
0.0
  0
VERTEX
  8
2
 10
355.000560000000007
 20
193.504820000000024
 30
0.0
  0
VERTEX
  8
2
 10
355.000560000000007
 20
196.504560000000026
 30
0.0
  0
SEQEND
  0
POLYLINE
  8
2
  6
LINETYPE_2
 66
     1
 10
0.0
 20
0.0
 30
0.0
  0
VERTEX
  8
2
 10
355.000560000000007
 20
196.504560000000026
 30
0.0
  0
VERTEX
  8
2
 10
335.00060000000002
 20
196.504560000000026
 30
0.0
  0
SEQEND
  0
POLYLINE
  8
2
  6
LINETYPE_2
 66
     1
 10
0.0
 20
0.0
 30
0.0
  0
VERTEX
  8
2
 10
335.00060000000002
 20
196.504560000000026
 30
0.0
  0
VERTEX
  8
2
 10
335.00060000000002
 20
193.504820000000024
 30
0.0
  0
SEQEND
  0
POLYLINE
  8
2
  6
LINETYPE_2
 66
     1
 10
0.0
 20
0.0
 30
0.0
  0
VERTEX
  8
2
 10
402.501100000000008
 20
193.504820000000024
 30
0.0
  0
VERTEX
  8
2
 10
402.501100000000008
 20
196.504560000000026
 30
0.0
  0
SEQEND
  0
POLYLINE
  8
2
  6
LINETYPE_2
 66
     1
 10
0.0
 20
0.0
 30
0.0
  0
VERTEX
  8
2
 10
402.501100000000008
 20
196.504560000000026
 30
0.0
  0
VERTEX
  8
2
 10
382.501140000000021
 20
196.504560000000026
 30
0.0
  0
SEQEND
  0
POLYLINE
  8
2
  6
LINETYPE_2
 66
     1
 10
0.0
 20
0.0
 30
0.0
  0
VERTEX
  8
2
 10
382.501140000000021
 20
196.504560000000026
 30
0.0
  0
VERTEX
  8
2
 10
382.501140000000021
 20
193.504820000000024
 30
0.0
  0
SEQEND
  0
POLYLINE
  8
2
  6
LINETYPE_2
 66
     1
 10
0.0
 20
0.0
 30
0.0
  0
VERTEX
  8
2
 10
307.500020000000006
 20
193.504820000000024
 30
0.0
  0
VERTEX
  8
2
 10
307.500020000000006
 20
196.504560000000026
 30
0.0
  0
SEQEND
  0
POLYLINE
  8
2
  6
LINETYPE_2
 66
     1
 10
0.0
 20
0.0
 30
0.0
  0
VERTEX
  8
2
 10
307.500020000000006
 20
196.504560000000026
 30
0.0
  0
VERTEX
  8
2
 10
287.500060000000019
 20
196.504560000000026
 30
0.0
  0
SEQEND
  0
POLYLINE
  8
2
  6
LINETYPE_2
 66
     1
 10
0.0
 20
0.0
 30
0.0
  0
VERTEX
  8
2
 10
287.500060000000019
 20
196.504560000000026
 30
0.0
  0
VERTEX
  8
2
 10
287.500060000000019
 20
193.504820000000024
 30
0.0
  0
SEQEND
  0
POLYLINE
  8
2
  6
LINETYPE_2
 66
     1
 10
0.0
 20
0.0
 30
0.0
  0
VERTEX
  8
2
 10
335.00060000000002
 20
193.504820000000024
 30
0.0
  0
VERTEX
  8
2
 10
307.500020000000006
 20
193.504820000000024
 30
0.0
  0
SEQEND
  0
POLYLINE
  8
2
  6
LINETYPE_2
 66
     1
 10
0.0
 20
0.0
 30
0.0
  0
VERTEX
  8
2
 10
382.501140000000021
 20
193.504820000000024
 30
0.0
  0
VERTEX
  8
2
 10
355.000560000000007
 20
193.504820000000024
 30
0.0
  0
SEQEND
  0
POLYLINE
  8
2
  6
LINETYPE_2
 66
     1
 10
0.0
 20
0.0
 30
0.0
  0
VERTEX
  8
2
 10
275.000720000000001
 20
143.502380000000016
 30
0.0
  0
VERTEX
  8
2
 10
275.000720000000001
 20
193.502280000000013
 30
0.0
  0
SEQEND
  0
POLYLINE
  8
2
  6
LINETYPE_2
 66
     1
 10
0.0
 20
0.0
 30
0.0
  0
VERTEX
  8
2
 10
275.000720000000001
 20
193.504820000000024
 30
0.0
  0
VERTEX
  8
2
 10
287.500060000000019
 20
193.504820000000024
 30
0.0
  0
SEQEND
  0
POLYLINE
  8
2
  6
LINETYPE_2
 66
     1
 10
0.0
 20
0.0
 30
0.0
  0
VERTEX
  8
2
 10
275.000720000000001
 20
143.502380000000016
 30
0.0
  0
VERTEX
  8
2
 10
287.500060000000019
 20
143.502380000000016
 30
0.0
  0
SEQEND
  0
POLYLINE
  8
2
  6
LINETYPE_2
 66
     1
 10
0.0
 20
0.0
 30
0.0
  0
VERTEX
  8
2
 10
415.000440000000026
 20
143.502380000000016
 30
0.0
  0
VERTEX
  8
2
 10
415.000440000000026
 20
193.502280000000013
 30
0.0
  0
SEQEND
  0
POLYLINE
  8
2
  6
LINETYPE_2
 66
     1
 10
0.0
 20
0.0
 30
0.0
  0
VERTEX
  8
2
 10
415.000440000000026
 20
193.504820000000024
 30
0.0
  0
VERTEX
  8
2
 10
402.501100000000008
 20
193.504820000000024
 30
0.0
  0
SEQEND
  0
POLYLINE
  8
2
  6
LINETYPE_2
 66
     1
 10
0.0
 20
0.0
 30
0.0
  0
VERTEX
  8
2
 10
415.000440000000026
 20
143.502380000000016
 30
0.0
  0
VERTEX
  8
2
 10
402.501100000000008
 20
143.502380000000016
 30
0.0
  0
SEQEND
  0
ARC
  8
2
  6
LINETYPE_2
999
CadStd_LW=0.2286
 10
2.9997400000000001
 20
137.502900000000011
 40
2.9997400000000001
 50
90.0000000000000000
 51
180.0000000000000000
  0
ARC
  8
2
  6
LINETYPE_2
999
CadStd_LW=0.2286
 10
136.999980000000022
 20
137.502900000000011
 40
2.9997400000000001
 50
0.0000000000000000
 51
90.0000000000000000
  0
ARC
  8
2
  6
LINETYPE_2
999
CadStd_LW=0.2286
 10
142.999459999999999
 20
137.502900000000011
 40
2.9997400000000001
 50
90.0000000000000000
 51
180.0000000000000000
  0
POLYLINE
  8
2
  6
LINETYPE_2
 66
     1
 10
0.0
 20
0.0
 30
0.0
  0
VERTEX
  8
2
 10
276.999700000000018
 20
140.502640000000014
 30
0.0
  0
VERTEX
  8
2
 10
142.999459999999999
 20
140.502640000000014
 30
0.0
  0
SEQEND
  0
ARC
  8
2
  6
LINETYPE_2
999
CadStd_LW=0.2286
 10
276.999700000000018
 20
137.502900000000011
 40
2.9997400000000001
 50
0.0000000000000000
 51
90.0000000000000000
  0
ARC
  8
2
  6
LINETYPE_2
999
CadStd_LW=0.2286
 10
282.999180000000024
 20
137.502900000000011
 40
2.9997400000000001
 50
90.0000000000000000
 51
180.0000000000000000
  0
POLYLINE
  8
2
  6
LINETYPE_2
 66
     1
 10
0.0
 20
0.0
 30
0.0
  0
VERTEX
  8
2
 10
416.999420000000043
 20
140.502640000000014
 30
0.0
  0
VERTEX
  8
2
 10
282.999180000000024
 20
140.502640000000014
 30
0.0
  0
SEQEND
  0
ARC
  8
2
  6
LINETYPE_2
999
CadStd_LW=0.2286
 10
416.999420000000043
 20
137.502900000000011
 40
2.9997400000000001
 50
0.0000000000000000
 51
90.0000000000000000
  0
POLYLINE
  8
2
  6
LINETYPE_2
 66
     1
 10
0.0
 20
0.0
 30
0.0
  0
VERTEX
  8
2
 10
419.999160000000018
 20
137.502900000000011
 30
0.0
  0
VERTEX
  8
2
 10
419.999160000000018
 20
3.5001200000000003
 30
0.0
  0
SEQEND
  0
ARC
  8
2
  6
LINETYPE_2
999
CadStd_LW=0.2286
 10
416.999420000000043
 20
3.5001200000000003
 40
2.9997400000000001
 50
270.0000000000000000
 51
0.0000000000000000
  0
POLYLINE
  8
2
  6
LINETYPE_2
 66
     1
 10
0.0
 20
0.0
 30
0.0
  0
VERTEX
  8
2
 10
282.999180000000024
 20
0.5003800000000001
 30
0.0
  0
VERTEX
  8
2
 10
416.999420000000043
 20
0.5003800000000001
 30
0.0
  0
SEQEND
  0
ARC
  8
2
  6
LINETYPE_2
999
CadStd_LW=0.2286
 10
282.999180000000024
 20
3.5001200000000003
 40
2.9997400000000001
 50
180.0000000000000000
 51
270.0000000000000000
  0
POLYLINE
  8
2
  6
LINETYPE_2
 66
     1
 10
0.0
 20
0.0
 30
0.0
  0
VERTEX
  8
2
 10
279.999439999999993
 20
137.502900000000011
 30
0.0
  0
VERTEX
  8
2
 10
279.999439999999993
 20
3.5001200000000003
 30
0.0
  0
SEQEND
  0
ARC
  8
2
  6
LINETYPE_2
999
CadStd_LW=0.2286
 10
276.999700000000018
 20
3.5001200000000003
 40
2.9997400000000001
 50
270.0000000000000000
 51
0.0000000000000000
  0
POLYLINE
  8
2
  6
LINETYPE_2
 66
     1
 10
0.0
 20
0.0
 30
0.0
  0
VERTEX
  8
2
 10
142.999459999999999
 20
0.5003800000000001
 30
0.0
  0
VERTEX
  8
2
 10
276.999700000000018
 20
0.5003800000000001
 30
0.0
  0
SEQEND
  0
ARC
  8
2
  6
LINETYPE_2
999
CadStd_LW=0.2286
 10
142.999459999999999
 20
3.5001200000000003
 40
2.9997400000000001
 50
180.0000000000000000
 51
270.0000000000000000
  0
POLYLINE
  8
2
  6
LINETYPE_2
 66
     1
 10
0.0
 20
0.0
 30
0.0
  0
VERTEX
  8
2
 10
139.999719999999996
 20
137.502900000000011
 30
0.0
  0
VERTEX
  8
2
 10
139.999719999999996
 20
3.5001200000000003
 30
0.0
  0
SEQEND
  0
ARC
  8
2
  6
LINETYPE_2
999
CadStd_LW=0.2286
 10
136.999980000000022
 20
3.5001200000000003
 40
2.9997400000000001
 50
270.0000000000000000
 51
0.0000000000000000
  0
POLYLINE
  8
2
  6
LINETYPE_2
 66
     1
 10
0.0
 20
0.0
 30
0.0
  0
VERTEX
  8
2
 10
136.999980000000022
 20
0.5003800000000001
 30
0.0
  0
VERTEX
  8
2
 10
2.9997400000000001
 20
0.5003800000000001
 30
0.0
  0
SEQEND
  0
POLYLINE
  8
2
  6
LINETYPE_2
 66
     1
 10
0.0
 20
0.0
 30
0.0
  0
VERTEX
  8
2
 10
0.0
 20
3.5001200000000003
 30
0.0
  0
VERTEX
  8
2
 10
0.0
 20
137.502900000000011
 30
0.0
  0
SEQEND
  0
ARC
  8
2
  6
LINETYPE_2
999
CadStd_LW=0.2286
 10
2.9997400000000001
 20
3.5001200000000003
 40
2.9997400000000001
 50
180.0000000000000000
 51
270.0000000000000000
  0
POLYLINE
  8
3
  6
LINETYPE_2
 66
     1
 70
     1
 10
0.0
 20
0.0
 30
0.0
  0
VERTEX
  8
3
 10
154.99588
 20
181.505860000000013
 30
0.0
  0
VERTEX
  8
3
 10
154.99588
 20
190.505080000000021
 30
0.0
  0
VERTEX
  8
3
 10
217.500200000000007
 20
190.5
 30
0.0
  0
VERTEX
  8
3
 10
217.500200000000007
 20
181.50078000000002
 30
0.0
  0
SEQEND
  0
POLYLINE
  8
3
  6
LINETYPE_2
 66
     1
 10
0.0
 20
0.0
 30
0.0
  0
VERTEX
  8
3
 10
134.000240000000019
 20
158.506160000000023
 30
0.0
  0
VERTEX
  8
3
 10
134.000240000000019
 20
178.50612000000001
 30
0.0
  0
SEQEND
  0
POLYLINE
  8
3
  6
LINETYPE_2
 66
     1
 10
0.0
 20
0.0
 30
0.0
  0
VERTEX
  8
3
 10
134.000240000000019
 20
178.50612000000001
 30
0.0
  0
VERTEX
  8
3
 10
136.999980000000022
 20
178.50612000000001
 30
0.0
  0
SEQEND
  0
POLYLINE
  8
3
  6
LINETYPE_2
 66
     1
 10
0.0
 20
0.0
 30
0.0
  0
VERTEX
  8
3
 10
136.999980000000022
 20
178.50612000000001
 30
0.0
  0
VERTEX
  8
3
 10
136.999980000000022
 20
158.506160000000023
 30
0.0
  0
SEQEND
  0
POLYLINE
  8
3
  6
LINETYPE_2
 66
     1
 10
0.0
 20
0.0
 30
0.0
  0
VERTEX
  8
3
 10
2.9997400000000001
 20
158.506160000000023
 30
0.0
  0
VERTEX
  8
3
 10
2.9997400000000001
 20
178.50612000000001
 30
0.0
  0
SEQEND
  0
POLYLINE
  8
3
  6
LINETYPE_2
 66
     1
 10
0.0
 20
0.0
 30
0.0
  0
VERTEX
  8
3
 10
2.9997400000000001
 20
178.50612000000001
 30
0.0
  0
VERTEX
  8
3
 10
5.9994800000000002
 20
178.50612000000001
 30
0.0
  0
SEQEND
  0
POLYLINE
  8
3
  6
LINETYPE_2
 66
     1
 10
0.0
 20
0.0
 30
0.0
  0
VERTEX
  8
3
 10
5.9994800000000002
 20
178.50612000000001
 30
0.0
  0
VERTEX
  8
3
 10
5.9994800000000002
 20
158.506160000000023
 30
0.0
  0
SEQEND
  0
POLYLINE
  8
3
  6
LINETYPE_2
 66
     1
 10
0.0
 20
0.0
 30
0.0
  0
VERTEX
  8
3
 10
5.9994800000000002
 20
158.503620000000012
 30
0.0
  0
VERTEX
  8
3
 10
2.9997400000000001
 20
158.503620000000012
 30
0.0
  0
SEQEND
  0
POLYLINE
  8
3
  6
LINETYPE_2
 66
     1
 10
0.0
 20
0.0
 30
0.0
  0
VERTEX
  8
3
 10
136.999980000000022
 20
158.503620000000012
 30
0.0
  0
VERTEX
  8
3
 10
134.000240000000019
 20
158.503620000000012
 30
0.0
  0
SEQEND
  0
POLYLINE
  8
2
  6
LINETYPE_2
 66
     1
 10
0.0
 20
0.0
 30
0.0
  0
VERTEX
  8
2
 10
79.9998400000000061
 20
143.502380000000016
 30
0.0
  0
VERTEX
  8
2
 10
79.9998400000000061
 20
140.502640000000014
 30
0.0
  0
SEQEND
  0
POLYLINE
  8
2
  6
LINETYPE_2
 66
     1
 10
0.0
 20
0.0
 30
0.0
  0
VERTEX
  8
2
 10
59.9998800000000045
 20
140.502640000000014
 30
0.0
  0
VERTEX
  8
2
 10
59.9998800000000045
 20
143.502380000000016
 30
0.0
  0
SEQEND
  0
POLYLINE
  8
2
  6
LINETYPE_2
 66
     1
 10
0.0
 20
0.0
 30
0.0
  0
VERTEX
  8
2
 10
107.5004200000000054
 20
140.502640000000014
 30
0.0
  0
VERTEX
  8
2
 10
107.5004200000000054
 20
143.502380000000016
 30
0.0
  0
SEQEND
  0
POLYLINE
  8
2
  6
LINETYPE_2
 66
     1
 10
0.0
 20
0.0
 30
0.0
  0
VERTEX
  8
2
 10
32.4993000000000052
 20
143.502380000000016
 30
0.0
  0
VERTEX
  8
2
 10
32.4993000000000052
 20
140.502640000000014
 30
0.0
  0
SEQEND
  0
POLYLINE
  8
2
  6
LINETYPE_2
 66
     1
 10
0.0
 20
0.0
 30
0.0
  0
VERTEX
  8
2
 10
12.4993400000000001
 20
140.502640000000014
 30
0.0
  0
VERTEX
  8
2
 10
12.4993400000000001
 20
143.502380000000016
 30
0.0
  0
SEQEND
  0
POLYLINE
  8
2
  6
LINETYPE_2
 66
     1
 10
0.0
 20
0.0
 30
0.0
  0
VERTEX
  8
2
 10
59.9998800000000045
 20
143.502380000000016
 30
0.0
  0
VERTEX
  8
2
 10
32.4993000000000052
 20
143.502380000000016
 30
0.0
  0
SEQEND
  0
POLYLINE
  8
2
  6
LINETYPE_2
 66
     1
 10
0.0
 20
0.0
 30
0.0
  0
VERTEX
  8
2
 10
107.5004200000000054
 20
143.502380000000016
 30
0.0
  0
VERTEX
  8
2
 10
79.9998400000000061
 20
143.502380000000016
 30
0.0
  0
SEQEND
  0
POLYLINE
  8
2
  6
LINETYPE_2
 66
     1
 10
0.0
 20
0.0
 30
0.0
  0
VERTEX
  8
2
 10
79.9998400000000061
 20
193.504820000000024
 30
0.0
  0
VERTEX
  8
2
 10
79.9998400000000061
 20
196.504560000000026
 30
0.0
  0
SEQEND
  0
POLYLINE
  8
2
  6
LINETYPE_2
 66
     1
 10
0.0
 20
0.0
 30
0.0
  0
VERTEX
  8
2
 10
79.9998400000000061
 20
196.504560000000026
 30
0.0
  0
VERTEX
  8
2
 10
59.9998800000000045
 20
196.504560000000026
 30
0.0
  0
SEQEND
  0
POLYLINE
  8
2
  6
LINETYPE_2
 66
     1
 10
0.0
 20
0.0
 30
0.0
  0
VERTEX
  8
2
 10
59.9998800000000045
 20
196.504560000000026
 30
0.0
  0
VERTEX
  8
2
 10
59.9998800000000045
 20
193.504820000000024
 30
0.0
  0
SEQEND
  0
POLYLINE
  8
2
  6
LINETYPE_2
 66
     1
 10
0.0
 20
0.0
 30
0.0
  0
VERTEX
  8
2
 10
127.5003800000000069
 20
193.504820000000024
 30
0.0
  0
VERTEX
  8
2
 10
127.5003800000000069
 20
196.504560000000026
 30
0.0
  0
SEQEND
  0
POLYLINE
  8
2
  6
LINETYPE_2
 66
     1
 10
0.0
 20
0.0
 30
0.0
  0
VERTEX
  8
2
 10
127.5003800000000069
 20
196.504560000000026
 30
0.0
  0
VERTEX
  8
2
 10
107.5004200000000054
 20
196.504560000000026
 30
0.0
  0
SEQEND
  0
POLYLINE
  8
2
  6
LINETYPE_2
 66
     1
 10
0.0
 20
0.0
 30
0.0
  0
VERTEX
  8
2
 10
107.5004200000000054
 20
196.504560000000026
 30
0.0
  0
VERTEX
  8
2
 10
107.5004200000000054
 20
193.504820000000024
 30
0.0
  0
SEQEND
  0
POLYLINE
  8
2
  6
LINETYPE_2
 66
     1
 10
0.0
 20
0.0
 30
0.0
  0
VERTEX
  8
2
 10
32.4993000000000052
 20
193.504820000000024
 30
0.0
  0
VERTEX
  8
2
 10
32.4993000000000052
 20
196.504560000000026
 30
0.0
  0
SEQEND
  0
POLYLINE
  8
2
  6
LINETYPE_2
 66
     1
 10
0.0
 20
0.0
 30
0.0
  0
VERTEX
  8
2
 10
32.4993000000000052
 20
196.504560000000026
 30
0.0
  0
VERTEX
  8
2
 10
12.4993400000000001
 20
196.504560000000026
 30
0.0
  0
SEQEND
  0
POLYLINE
  8
2
  6
LINETYPE_2
 66
     1
 10
0.0
 20
0.0
 30
0.0
  0
VERTEX
  8
2
 10
12.4993400000000001
 20
196.504560000000026
 30
0.0
  0
VERTEX
  8
2
 10
12.4993400000000001
 20
193.504820000000024
 30
0.0
  0
SEQEND
  0
POLYLINE
  8
2
  6
LINETYPE_2
 66
     1
 10
0.0
 20
0.0
 30
0.0
  0
VERTEX
  8
2
 10
59.9998800000000045
 20
193.504820000000024
 30
0.0
  0
VERTEX
  8
2
 10
32.4993000000000052
 20
193.504820000000024
 30
0.0
  0
SEQEND
  0
POLYLINE
  8
2
  6
LINETYPE_2
 66
     1
 10
0.0
 20
0.0
 30
0.0
  0
VERTEX
  8
2
 10
107.5004200000000054
 20
193.504820000000024
 30
0.0
  0
VERTEX
  8
2
 10
79.9998400000000061
 20
193.504820000000024
 30
0.0
  0
SEQEND
  0
POLYLINE
  8
3
  6
LINETYPE_2
 66
     1
 70
     1
 10
0.0
 20
0.0
 30
0.0
  0
VERTEX
  8
3
 10
19.9999600000000015
 20
151.500840000000011
 30
0.0
  0
VERTEX
  8
3
 10
29.9999400000000023
 20
151.500840000000011
 30
0.0
  0
VERTEX
  8
3
 10
29.9999400000000023
 20
161.500820000000004
 30
0.0
  0
VERTEX
  8
3
 10
19.9999600000000015
 20
161.500820000000004
 30
0.0
  0
SEQEND
  0
POLYLINE
  8
2
  6
LINETYPE_2
 66
     1
 70
     1
 10
0.0
 20
0.0
 30
0.0
  0
VERTEX
  8
2
 10
127.5003800000000069
 20
143.502380000000016
 30
0.0
  0
SEQEND
  0
POLYLINE
  8
2
  6
LINETYPE_2
 66
     1
 10
0.0
 20
0.0
 30
0.0
  0
VERTEX
  8
2
 10
0.0
 20
143.502380000000016
 30
0.0
  0
VERTEX
  8
2
 10
0.0
 20
193.502280000000013
 30
0.0
  0
SEQEND
  0
POLYLINE
  8
2
  6
LINETYPE_2
 66
     1
 10
0.0
 20
0.0
 30
0.0
  0
VERTEX
  8
2
 10
0.0
 20
193.504820000000024
 30
0.0
  0
VERTEX
  8
2
 10
12.4993400000000001
 20
193.504820000000024
 30
0.0
  0
SEQEND
  0
POLYLINE
  8
2
  6
LINETYPE_2
 66
     1
 10
0.0
 20
0.0
 30
0.0
  0
VERTEX
  8
2
 10
0.0
 20
143.502380000000016
 30
0.0
  0
VERTEX
  8
2
 10
12.4993400000000001
 20
143.502380000000016
 30
0.0
  0
SEQEND
  0
POLYLINE
  8
2
  6
LINETYPE_2
 66
     1
 10
0.0
 20
0.0
 30
0.0
  0
VERTEX
  8
2
 10
139.999719999999996
 20
143.502380000000016
 30
0.0
  0
VERTEX
  8
2
 10
139.999719999999996
 20
193.502280000000013
 30
0.0
  0
SEQEND
  0
POLYLINE
  8
2
  6
LINETYPE_2
 66
     1
 10
0.0
 20
0.0
 30
0.0
  0
VERTEX
  8
2
 10
139.999719999999996
 20
193.504820000000024
 30
0.0
  0
VERTEX
  8
2
 10
127.5003800000000069
 20
193.504820000000024
 30
0.0
  0
SEQEND
  0
CIRCLE
  8
3
  6
LINETYPE_2
999
CadStd_LW=0.2286
 10
21.0007200000000012
 20
181.002940000000024
 30
0.0
 40
1.9989800000000002
  0
CIRCLE
  8
3
  6
LINETYPE_2
999
CadStd_LW=0.2286
 10
28.0009600000000027
 20
181.002940000000024
 30
0.0
 40
1.9989800000000002
  0
CIRCLE
  8
3
  6
LINETYPE_2
999
CadStd_LW=0.2286
 10
35.0012000000000043
 20
181.002940000000024
 30
0.0
 40
1.9989800000000002
  0
CIRCLE
  8
3
  6
LINETYPE_2
999
CadStd_LW=0.2286
 10
42.0014400000000023
 20
181.002940000000024
 30
0.0
 40
1.9989800000000002
  0
CIRCLE
  8
3
  6
LINETYPE_2
999
CadStd_LW=0.2286
 10
49.0016800000000004
 20
181.002940000000024
 30
0.0
 40
1.9989800000000002
  0
CIRCLE
  8
3
  6
LINETYPE_2
999
CadStd_LW=0.2286
 10
56.0019200000000055
 20
181.002940000000024
 30
0.0
 40
1.9989800000000002
  0
CIRCLE
  8
3
  6
LINETYPE_2
999
CadStd_LW=0.2286
 10
63.0021600000000035
 20
181.002940000000024
 30
0.0
 40
1.9989800000000002
  0
CIRCLE
  8
3
  6
LINETYPE_2
999
CadStd_LW=0.2286
 10
70.0024000000000086
 20
181.002940000000024
 30
0.0
 40
1.9989800000000002
  0
CIRCLE
  8
3
  6
LINETYPE_2
999
CadStd_LW=0.2286
 10
77.0026399999999995
 20
181.002940000000024
 30
0.0
 40
1.9989800000000002
  0
CIRCLE
  8
3
  6
LINETYPE_2
999
CadStd_LW=0.2286
 10
84.0028800000000047
 20
181.002940000000024
 30
0.0
 40
1.9989800000000002
  0
CIRCLE
  8
3
  6
LINETYPE_2
999
CadStd_LW=0.2286
 10
91.0031200000000098
 20
181.002940000000024
 30
0.0
 40
1.9989800000000002
  0
CIRCLE
  8
3
  6
LINETYPE_2
999
CadStd_LW=0.2286
 10
21.0007200000000012
 20
188.003180000000015
 30
0.0
 40
1.9989800000000002
  0
CIRCLE
  8
3
  6
LINETYPE_2
999
CadStd_LW=0.2286
 10
28.0009600000000027
 20
188.003180000000015
 30
0.0
 40
1.9989800000000002
  0
CIRCLE
  8
3
  6
LINETYPE_2
999
CadStd_LW=0.2286
 10
35.0012000000000043
 20
188.003180000000015
 30
0.0
 40
1.9989800000000002
  0
CIRCLE
  8
3
  6
LINETYPE_2
999
CadStd_LW=0.2286
 10
42.0014400000000023
 20
188.003180000000015
 30
0.0
 40
1.9989800000000002
  0
CIRCLE
  8
3
  6
LINETYPE_2
999
CadStd_LW=0.2286
 10
49.0016800000000004
 20
188.003180000000015
 30
0.0
 40
1.9989800000000002
  0
CIRCLE
  8
3
  6
LINETYPE_2
999
CadStd_LW=0.2286
 10
56.0019200000000055
 20
188.003180000000015
 30
0.0
 40
1.9989800000000002
  0
CIRCLE
  8
3
  6
LINETYPE_2
999
CadStd_LW=0.2286
 10
63.0021600000000035
 20
188.003180000000015
 30
0.0
 40
1.9989800000000002
  0
CIRCLE
  8
3
  6
LINETYPE_2
999
CadStd_LW=0.2286
 10
77.0026399999999995
 20
188.003180000000015
 30
0.0
 40
1.9989800000000002
  0
CIRCLE
  8
3
  6
LINETYPE_2
999
CadStd_LW=0.2286
 10
84.0028800000000047
 20
188.003180000000015
 30
0.0
 40
1.9989800000000002
  0
CIRCLE
  8
3
  6
LINETYPE_2
999
CadStd_LW=0.2286
 10
91.0031200000000098
 20
188.003180000000015
 30
0.0
 40
1.9989800000000002
  0
POLYLINE
  8
2
  6
LINETYPE_2
 66
     1
 10
0.0
 20
0.0
 30
0.0
  0
VERTEX
  8
2
 10
136.999980000000022
 20
140.502640000000014
 30
0.0
  0
VERTEX
  8
2
 10
2.9997400000000001
 20
140.502640000000014
 30
0.0
  0
SEQEND
  0
POLYLINE
  8
3
  6
LINETYPE_2
 66
     1
 70
     1
 10
0.0
 20
0.0
 30
0.0
  0
VERTEX
  8
3
 10
48.0009200000000007
 20
146.499580000000009
 30
0.0
  0
VERTEX
  8
3
 10
58.9991200000000049
 20
146.499580000000009
 30
0.0
  0
VERTEX
  8
3
 10
58.9991200000000049
 20
159.499300000000005
 30
0.0
  0
VERTEX
  8
3
 10
48.0009200000000007
 20
159.499300000000005
 30
0.0
  0
SEQEND
  0
CIRCLE
  8
3
  6
LINETYPE_2
999
CadStd_LW=0.2286
 10
121.0056000000000012
 20
181.002940000000024
 30
0.0
 40
1.9989800000000002
  0
CIRCLE
  8
3
  6
LINETYPE_2
999
CadStd_LW=0.2286
 10
121.0056000000000012
 20
188.003180000000015
 30
0.0
 40
1.9989800000000002
  0
POLYLINE
  8
3
  6
LINETYPE_2
 66
     1
 10
0.0
 20
0.0
 30
0.0
  0
VERTEX
  8
3
 10
97.0000600000000048
 20
151.000460000000004
 30
0.0
  0
VERTEX
  8
3
 10
115.0010400000000033
 20
151.000460000000004
 30
0.0
  0
SEQEND
  0
POLYLINE
  8
3
  6
LINETYPE_2
 66
     1
 10
0.0
 20
0.0
 30
0.0
  0
VERTEX
  8
3
 10
97.0000600000000048
 20
186.499500000000012
 30
0.0
  0
VERTEX
  8
3
 10
97.0000600000000048
 20
151.000460000000004
 30
0.0
  0
SEQEND
  0
POLYLINE
  8
3
  6
LINETYPE_2
 66
     1
 10
0.0
 20
0.0
 30
0.0
  0
VERTEX
  8
3
 10
115.0010400000000033
 20
151.000460000000004
 30
0.0
  0
VERTEX
  8
3
 10
115.0010400000000033
 20
186.499500000000012
 30
0.0
  0
SEQEND
  0
POLYLINE
  8
3
  6
LINETYPE_2
 66
     1
 10
0.0
 20
0.0
 30
0.0
  0
VERTEX
  8
3
 10
97.0000600000000048
 20
186.499500000000012
 30
0.0
  0
VERTEX
  8
3
 10
115.0010400000000033
 20
186.499500000000012
 30
0.0
  0
SEQEND
  0
ARC
  8
2
  6
LINETYPE_2
999
CadStd_LW=0.2286
 10
69.9998599999999982
 20
187.995560000000012
 40
2.4983104771573608
 50
179.8835453239608740
 51
0.1164546760391360
  0
POLYLINE
  8
2
  6
LINETYPE_2
 66
     1
 10
0.0
 20
0.0
 30
0.0
  0
VERTEX
  8
2
 10
72.4992200000000082
 20
188.000640000000004
 30
0.0
  0
VERTEX
  8
2
 10
72.4992200000000082
 20
196.499480000000005
 30
0.0
  0
SEQEND
  0
POLYLINE
  8
2
  6
LINETYPE_2
 66
     1
 10
0.0
 20
0.0
 30
0.0
  0
VERTEX
  8
2
 10
67.5005000000000024
 20
188.000640000000004
 30
0.0
  0
VERTEX
  8
2
 10
67.5005000000000024
 20
196.499480000000005
 30
0.0
  0
SEQEND
  0
POLYLINE
  8
2
  6
LINETYPE_2
 66
     1
 10
0.0
 20
0.0
 30
0.0
  0
VERTEX
  8
2
 10
127.5003800000000069
 20
143.502380000000016
 30
0.0
  0
VERTEX
  8
2
 10
139.999719999999996
 20
143.502380000000016
 30
0.0
  0
SEQEND
  0
POLYLINE
  8
2
  6
LINETYPE_2
 66
     1
 10
0.0
 20
0.0
 30
0.0
  0
VERTEX
  8
2
 10
127.5003800000000069
 20
140.502640000000014
 30
0.0
  0
VERTEX
  8
2
 10
127.5003800000000069
 20
143.502380000000016
 30
0.0
  0
SEQEND
  0
ENDSEC
  0
EOF
